ISO-10303-21;
HEADER;
/* Generated by software containing ST-Developer
 * from STEP Tools, Inc. (www.steptools.com) 
 */

FILE_DESCRIPTION(
/* description */ (''),
/* implementation_level */ '2;1');

FILE_NAME(
/* name */ 'locking_seal_bottom v3.step',
/* time_stamp */ '2023-05-17T22:43:29+02:00',
/* author */ (''),
/* organization */ (''),
/* preprocessor_version */ 'ST-DEVELOPER v19.2',
/* originating_system */ 'Autodesk Translation Framework v12.4.0.73',
/* authorisation */ '');

FILE_SCHEMA (('AUTOMOTIVE_DESIGN { 1 0 10303 214 3 1 1 }'));
ENDSEC;

DATA;
#10=MECHANICAL_DESIGN_GEOMETRIC_PRESENTATION_REPRESENTATION('',(#13),#1091);
#11=SHAPE_REPRESENTATION_RELATIONSHIP('SRR','None',#1098,#12);
#12=ADVANCED_BREP_SHAPE_REPRESENTATION('',(#14),#1090);
#13=STYLED_ITEM('',(#1107),#14);
#14=MANIFOLD_SOLID_BREP('Body1',#349);
#15=FACE_BOUND('',#119,.T.);
#16=FACE_BOUND('',#121,.T.);
#17=CIRCLE('',#367,4.75);
#18=CIRCLE('',#371,4.75);
#19=CIRCLE('',#372,4.75);
#20=CIRCLE('',#373,4.75);
#21=CIRCLE('',#375,2.06);
#22=CIRCLE('',#376,2.06);
#23=CIRCLE('',#377,2.06);
#24=CIRCLE('',#378,2.06);
#25=CIRCLE('',#380,4.);
#26=CIRCLE('',#381,4.);
#27=CIRCLE('',#385,4.);
#28=CIRCLE('',#386,4.);
#29=CYLINDRICAL_SURFACE('',#366,4.75);
#30=CYLINDRICAL_SURFACE('',#370,4.75);
#31=CYLINDRICAL_SURFACE('',#374,2.06);
#32=CYLINDRICAL_SURFACE('',#384,4.);
#33=ELLIPSE('',#364,4.77218867922419,4.75);
#34=ELLIPSE('',#365,7.26455675111122,7.25);
#35=LINE('',#947,#53);
#36=LINE('',#949,#54);
#37=LINE('',#950,#55);
#38=LINE('',#999,#56);
#39=LINE('',#1038,#57);
#40=LINE('',#1041,#58);
#41=LINE('',#1042,#59);
#42=LINE('',#1047,#60);
#43=LINE('',#1053,#61);
#44=LINE('',#1057,#62);
#45=LINE('',#1061,#63);
#46=LINE('',#1066,#64);
#47=LINE('',#1071,#65);
#48=LINE('',#1074,#66);
#49=LINE('',#1075,#67);
#50=LINE('',#1078,#68);
#51=LINE('',#1079,#69);
#52=LINE('',#1082,#70);
#53=VECTOR('',#394,10.);
#54=VECTOR('',#395,10.);
#55=VECTOR('',#396,10.);
#56=VECTOR('',#403,10.);
#57=VECTOR('',#408,10.);
#58=VECTOR('',#411,10.);
#59=VECTOR('',#412,10.);
#60=VECTOR('',#417,4.75);
#61=VECTOR('',#424,10.);
#62=VECTOR('',#427,10.);
#63=VECTOR('',#430,2.06);
#64=VECTOR('',#437,10.);
#65=VECTOR('',#442,10.);
#66=VECTOR('',#445,10.);
#67=VECTOR('',#446,10.);
#68=VECTOR('',#449,10.);
#69=VECTOR('',#450,10.);
#70=VECTOR('',#453,4.);
#71=PLANE('',#363);
#72=PLANE('',#368);
#73=PLANE('',#369);
#74=PLANE('',#379);
#75=PLANE('',#382);
#76=PLANE('',#383);
#77=PLANE('',#387);
#78=PLANE('',#388);
#79=PLANE('',#389);
#80=FACE_OUTER_BOUND('',#100,.T.);
#81=FACE_OUTER_BOUND('',#101,.T.);
#82=FACE_OUTER_BOUND('',#102,.T.);
#83=FACE_OUTER_BOUND('',#103,.T.);
#84=FACE_OUTER_BOUND('',#104,.T.);
#85=FACE_OUTER_BOUND('',#105,.T.);
#86=FACE_OUTER_BOUND('',#106,.T.);
#87=FACE_OUTER_BOUND('',#107,.T.);
#88=FACE_OUTER_BOUND('',#108,.T.);
#89=FACE_OUTER_BOUND('',#109,.T.);
#90=FACE_OUTER_BOUND('',#110,.T.);
#91=FACE_OUTER_BOUND('',#111,.T.);
#92=FACE_OUTER_BOUND('',#112,.T.);
#93=FACE_OUTER_BOUND('',#113,.T.);
#94=FACE_OUTER_BOUND('',#114,.T.);
#95=FACE_OUTER_BOUND('',#115,.T.);
#96=FACE_OUTER_BOUND('',#116,.T.);
#97=FACE_OUTER_BOUND('',#117,.T.);
#98=FACE_OUTER_BOUND('',#118,.T.);
#99=FACE_OUTER_BOUND('',#120,.T.);
#100=EDGE_LOOP('',(#222,#223,#224,#225));
#101=EDGE_LOOP('',(#226,#227,#228,#229));
#102=EDGE_LOOP('',(#230,#231,#232,#233));
#103=EDGE_LOOP('',(#234,#235,#236));
#104=EDGE_LOOP('',(#237,#238,#239,#240));
#105=EDGE_LOOP('',(#241,#242,#243,#244,#245));
#106=EDGE_LOOP('',(#246,#247,#248,#249,#250));
#107=EDGE_LOOP('',(#251,#252,#253,#254));
#108=EDGE_LOOP('',(#255,#256,#257,#258));
#109=EDGE_LOOP('',(#259,#260,#261,#262,#263));
#110=EDGE_LOOP('',(#264,#265,#266,#267,#268,#269));
#111=EDGE_LOOP('',(#270,#271,#272,#273,#274,#275,#276,#277,#278,#279));
#112=EDGE_LOOP('',(#280,#281,#282,#283,#284,#285,#286,#287));
#113=EDGE_LOOP('',(#288,#289,#290,#291,#292,#293));
#114=EDGE_LOOP('',(#294,#295,#296,#297));
#115=EDGE_LOOP('',(#298,#299,#300,#301));
#116=EDGE_LOOP('',(#302,#303,#304,#305,#306,#307,#308,#309));
#117=EDGE_LOOP('',(#310,#311,#312,#313));
#118=EDGE_LOOP('',(#314));
#119=EDGE_LOOP('',(#315));
#120=EDGE_LOOP('',(#316,#317,#318,#319,#320));
#121=EDGE_LOOP('',(#321));
#122=B_SPLINE_CURVE_WITH_KNOTS('',3,(#509,#510,#511,#512,#513,#514,#515),
 .UNSPECIFIED.,.F.,.F.,(4,1,1,1,4),(0.,0.285714285714286,0.571428571428571,
0.857142857142857,1.),.UNSPECIFIED.);
#123=B_SPLINE_CURVE_WITH_KNOTS('',3,(#517,#518,#519,#520,#521,#522),
 .UNSPECIFIED.,.F.,.F.,(4,1,1,4),(3.99416679896354,4.33659557763879,4.67902435631403,
6.39116824969025),.UNSPECIFIED.);
#124=B_SPLINE_CURVE_WITH_KNOTS('',3,(#524,#525,#526,#527,#528,#529,#530),
 .UNSPECIFIED.,.F.,.F.,(4,1,1,1,4),(-1.,-0.857142857142857,-0.571428571428571,
-0.285714285714286,0.),.UNSPECIFIED.);
#125=B_SPLINE_CURVE_WITH_KNOTS('',3,(#531,#532,#533,#534,#535,#536),
 .UNSPECIFIED.,.F.,.F.,(4,1,1,4),(-6.39116824969025,-4.67902435631403,-4.33659557763879,
-3.99416679896354),.UNSPECIFIED.);
#126=B_SPLINE_CURVE_WITH_KNOTS('',3,(#595,#596,#597,#598,#599,#600,#601),
 .UNSPECIFIED.,.F.,.F.,(4,1,1,1,4),(0.,0.285714285714286,0.571428571428571,
0.857142857142857,1.),.UNSPECIFIED.);
#127=B_SPLINE_CURVE_WITH_KNOTS('',3,(#602,#603,#604,#605,#606,#607,#608,
#609),.UNSPECIFIED.,.F.,.F.,(4,1,1,1,1,4),(3.2886101166246,3.38940392855443,
3.5909915524141,3.79257917627376,3.89337298820359,3.99416679896354),
 .UNSPECIFIED.);
#128=B_SPLINE_CURVE_WITH_KNOTS('',3,(#610,#611,#612,#613,#614,#615,#616,
#617),.UNSPECIFIED.,.F.,.F.,(4,1,1,1,1,4),(-3.99416680013342,-3.89337298820359,
-3.79257917627376,-3.5909915524141,-3.38940392855443,-3.2886101166246),
 .UNSPECIFIED.);
#129=B_SPLINE_CURVE_WITH_KNOTS('',3,(#662,#663,#664,#665,#666,#667,#668),
 .UNSPECIFIED.,.F.,.F.,(4,1,1,1,4),(0.,0.285714285714286,0.571428571428571,
0.857142857142857,1.),.UNSPECIFIED.);
#130=B_SPLINE_CURVE_WITH_KNOTS('',3,(#669,#670,#671,#672,#673,#674),
 .UNSPECIFIED.,.F.,.F.,(4,1,1,4),(0.891476459828263,1.91881945501646,2.94616245020466,
3.2886101152674),.UNSPECIFIED.);
#131=B_SPLINE_CURVE_WITH_KNOTS('',3,(#675,#676,#677,#678,#679,#680),
 .UNSPECIFIED.,.F.,.F.,(4,1,1,4),(-3.28861011391019,-2.94616245020466,-1.91881945501646,
-0.891476459828263),.UNSPECIFIED.);
#132=B_SPLINE_CURVE_WITH_KNOTS('',3,(#815,#816,#817,#818,#819,#820,#821,
#822,#823,#824,#825,#826,#827,#828,#829,#830,#831,#832,#833),
 .UNSPECIFIED.,.F.,.F.,(4,1,1,1,1,1,1,1,1,1,1,1,1,1,2,4),(-0.891476459828263,
-0.853173744710876,-0.722127487831253,-0.646638499878014,-0.575549725780441,
-0.508831360390383,-0.445309076500658,-0.384407999935076,-0.325436231966017,
-0.268174577033972,-0.212267946511684,-0.157612262903421,-0.104258326473186,
-0.0519284758534634,-0.00600000000000003,-3.32180094083864E-17),
 .UNSPECIFIED.);
#133=B_SPLINE_CURVE_WITH_KNOTS('',3,(#834,#835,#836,#837,#838,#839,#840,
#841,#842,#843,#844,#845,#846,#847,#848,#849,#850,#851,#852),
 .UNSPECIFIED.,.F.,.F.,(4,2,1,1,1,1,1,1,1,1,1,1,1,1,1,4),(3.32180094083864E-17,
0.00600000000000003,0.0519284758534634,0.104258326473186,0.157612262903421,
0.212267946511684,0.268174577033972,0.325436231966017,0.384407999935076,
0.445309076500658,0.508831360390383,0.575549725780441,0.646638499878014,
0.722127487831253,0.853173744710876,0.891476459828263),.UNSPECIFIED.);
#134=B_SPLINE_CURVE_WITH_KNOTS('',3,(#911,#912,#913,#914,#915,#916,#917,
#918,#919,#920,#921,#922,#923,#924,#925,#926,#927,#928),.UNSPECIFIED.,.F.,
 .F.,(4,2,2,2,2,2,2,2,4),(-0.234542751436423,-0.21614901883873,-0.195329943625203,
-0.1617323530666,-0.120377612739754,-0.0685028732890848,-0.0321283926188277,
-0.00958843898833547,0.),.UNSPECIFIED.);
#135=B_SPLINE_CURVE_WITH_KNOTS('',3,(#929,#930,#931,#932,#933,#934,#935,
#936),.UNSPECIFIED.,.F.,.F.,(4,1,1,2,4),(-6.89184134297715,-6.76788353469196,
-6.68647339379669,-6.52365311200615,-6.39116824969025),.UNSPECIFIED.);
#136=B_SPLINE_CURVE_WITH_KNOTS('',3,(#937,#938,#939,#940,#941,#942,#943,
#944),.UNSPECIFIED.,.F.,.F.,(4,2,1,1,4),(6.39116824969025,6.52365311200615,
6.68647339379669,6.76788353469196,6.9307038164825),.UNSPECIFIED.);
#137=B_SPLINE_CURVE_WITH_KNOTS('',3,(#988,#989,#990,#991,#992,#993,#994,
#995),.UNSPECIFIED.,.F.,.F.,(4,2,2,4),(-0.396977762855015,-0.396086290231033,
-0.29664686343655,-0.284267666410296),.UNSPECIFIED.);
#138=B_SPLINE_CURVE_WITH_KNOTS('',3,(#1027,#1028,#1029,#1030),
 .UNSPECIFIED.,.F.,.F.,(4,4),(2.37674965095687,2.83171913024464),
 .UNSPECIFIED.);
#139=B_SPLINE_CURVE_WITH_KNOTS('',3,(#1032,#1033,#1034,#1035,#1036,#1037),
 .UNSPECIFIED.,.F.,.F.,(4,2,4),(2.83171913024464,2.89017960492426,2.89129223893978),
 .UNSPECIFIED.);
#140=VERTEX_POINT('',#507);
#141=VERTEX_POINT('',#508);
#142=VERTEX_POINT('',#516);
#143=VERTEX_POINT('',#523);
#144=VERTEX_POINT('',#593);
#145=VERTEX_POINT('',#594);
#146=VERTEX_POINT('',#660);
#147=VERTEX_POINT('',#661);
#148=VERTEX_POINT('',#814);
#149=VERTEX_POINT('',#909);
#150=VERTEX_POINT('',#910);
#151=VERTEX_POINT('',#946);
#152=VERTEX_POINT('',#948);
#153=VERTEX_POINT('',#986);
#154=VERTEX_POINT('',#998);
#155=VERTEX_POINT('',#1026);
#156=VERTEX_POINT('',#1031);
#157=VERTEX_POINT('',#1040);
#158=VERTEX_POINT('',#1044);
#159=VERTEX_POINT('',#1046);
#160=VERTEX_POINT('',#1051);
#161=VERTEX_POINT('',#1052);
#162=VERTEX_POINT('',#1054);
#163=VERTEX_POINT('',#1056);
#164=VERTEX_POINT('',#1058);
#165=VERTEX_POINT('',#1060);
#166=VERTEX_POINT('',#1065);
#167=VERTEX_POINT('',#1067);
#168=VERTEX_POINT('',#1069);
#169=VERTEX_POINT('',#1073);
#170=VERTEX_POINT('',#1077);
#171=VERTEX_POINT('',#1081);
#172=EDGE_CURVE('',#140,#141,#122,.T.);
#173=EDGE_CURVE('',#141,#142,#123,.T.);
#174=EDGE_CURVE('',#142,#143,#124,.T.);
#175=EDGE_CURVE('',#143,#140,#125,.T.);
#176=EDGE_CURVE('',#144,#145,#126,.T.);
#177=EDGE_CURVE('',#145,#141,#127,.T.);
#178=EDGE_CURVE('',#140,#144,#128,.T.);
#179=EDGE_CURVE('',#146,#147,#129,.T.);
#180=EDGE_CURVE('',#147,#145,#130,.T.);
#181=EDGE_CURVE('',#144,#146,#131,.T.);
#182=EDGE_CURVE('',#146,#148,#132,.T.);
#183=EDGE_CURVE('',#148,#147,#133,.T.);
#184=EDGE_CURVE('',#149,#150,#134,.T.);
#185=EDGE_CURVE('',#150,#143,#135,.T.);
#186=EDGE_CURVE('',#142,#149,#136,.T.);
#187=EDGE_CURVE('',#151,#144,#35,.T.);
#188=EDGE_CURVE('',#151,#152,#36,.T.);
#189=EDGE_CURVE('',#152,#148,#37,.T.);
#190=EDGE_CURVE('',#148,#153,#33,.T.);
#191=EDGE_CURVE('',#153,#149,#137,.T.);
#192=EDGE_CURVE('',#142,#147,#34,.T.);
#193=EDGE_CURVE('',#154,#140,#38,.T.);
#194=EDGE_CURVE('',#154,#151,#17,.T.);
#195=EDGE_CURVE('',#153,#155,#138,.T.);
#196=EDGE_CURVE('',#155,#156,#139,.T.);
#197=EDGE_CURVE('',#156,#150,#39,.T.);
#198=EDGE_CURVE('',#157,#156,#40,.T.);
#199=EDGE_CURVE('',#157,#154,#41,.T.);
#200=EDGE_CURVE('',#158,#158,#18,.T.);
#201=EDGE_CURVE('',#158,#159,#42,.T.);
#202=EDGE_CURVE('',#159,#157,#19,.T.);
#203=EDGE_CURVE('',#152,#159,#20,.T.);
#204=EDGE_CURVE('',#160,#161,#43,.T.);
#205=EDGE_CURVE('',#162,#160,#21,.T.);
#206=EDGE_CURVE('',#163,#162,#44,.T.);
#207=EDGE_CURVE('',#164,#163,#22,.T.);
#208=EDGE_CURVE('',#164,#165,#45,.T.);
#209=EDGE_CURVE('',#165,#165,#23,.T.);
#210=EDGE_CURVE('',#161,#164,#24,.T.);
#211=EDGE_CURVE('',#163,#166,#46,.T.);
#212=EDGE_CURVE('',#166,#167,#25,.T.);
#213=EDGE_CURVE('',#167,#168,#26,.T.);
#214=EDGE_CURVE('',#168,#161,#47,.T.);
#215=EDGE_CURVE('',#169,#162,#48,.T.);
#216=EDGE_CURVE('',#169,#166,#49,.T.);
#217=EDGE_CURVE('',#170,#168,#50,.T.);
#218=EDGE_CURVE('',#160,#170,#51,.T.);
#219=EDGE_CURVE('',#167,#171,#52,.T.);
#220=EDGE_CURVE('',#171,#171,#27,.T.);
#221=EDGE_CURVE('',#170,#169,#28,.T.);
#222=ORIENTED_EDGE('',*,*,#172,.T.);
#223=ORIENTED_EDGE('',*,*,#173,.T.);
#224=ORIENTED_EDGE('',*,*,#174,.T.);
#225=ORIENTED_EDGE('',*,*,#175,.T.);
#226=ORIENTED_EDGE('',*,*,#176,.T.);
#227=ORIENTED_EDGE('',*,*,#177,.T.);
#228=ORIENTED_EDGE('',*,*,#172,.F.);
#229=ORIENTED_EDGE('',*,*,#178,.T.);
#230=ORIENTED_EDGE('',*,*,#179,.T.);
#231=ORIENTED_EDGE('',*,*,#180,.T.);
#232=ORIENTED_EDGE('',*,*,#176,.F.);
#233=ORIENTED_EDGE('',*,*,#181,.T.);
#234=ORIENTED_EDGE('',*,*,#182,.T.);
#235=ORIENTED_EDGE('',*,*,#183,.T.);
#236=ORIENTED_EDGE('',*,*,#179,.F.);
#237=ORIENTED_EDGE('',*,*,#184,.T.);
#238=ORIENTED_EDGE('',*,*,#185,.T.);
#239=ORIENTED_EDGE('',*,*,#174,.F.);
#240=ORIENTED_EDGE('',*,*,#186,.T.);
#241=ORIENTED_EDGE('',*,*,#182,.F.);
#242=ORIENTED_EDGE('',*,*,#181,.F.);
#243=ORIENTED_EDGE('',*,*,#187,.F.);
#244=ORIENTED_EDGE('',*,*,#188,.T.);
#245=ORIENTED_EDGE('',*,*,#189,.T.);
#246=ORIENTED_EDGE('',*,*,#183,.F.);
#247=ORIENTED_EDGE('',*,*,#190,.T.);
#248=ORIENTED_EDGE('',*,*,#191,.T.);
#249=ORIENTED_EDGE('',*,*,#186,.F.);
#250=ORIENTED_EDGE('',*,*,#192,.T.);
#251=ORIENTED_EDGE('',*,*,#178,.F.);
#252=ORIENTED_EDGE('',*,*,#193,.F.);
#253=ORIENTED_EDGE('',*,*,#194,.T.);
#254=ORIENTED_EDGE('',*,*,#187,.T.);
#255=ORIENTED_EDGE('',*,*,#180,.F.);
#256=ORIENTED_EDGE('',*,*,#192,.F.);
#257=ORIENTED_EDGE('',*,*,#173,.F.);
#258=ORIENTED_EDGE('',*,*,#177,.F.);
#259=ORIENTED_EDGE('',*,*,#184,.F.);
#260=ORIENTED_EDGE('',*,*,#191,.F.);
#261=ORIENTED_EDGE('',*,*,#195,.T.);
#262=ORIENTED_EDGE('',*,*,#196,.T.);
#263=ORIENTED_EDGE('',*,*,#197,.T.);
#264=ORIENTED_EDGE('',*,*,#185,.F.);
#265=ORIENTED_EDGE('',*,*,#197,.F.);
#266=ORIENTED_EDGE('',*,*,#198,.F.);
#267=ORIENTED_EDGE('',*,*,#199,.T.);
#268=ORIENTED_EDGE('',*,*,#193,.T.);
#269=ORIENTED_EDGE('',*,*,#175,.F.);
#270=ORIENTED_EDGE('',*,*,#200,.F.);
#271=ORIENTED_EDGE('',*,*,#201,.T.);
#272=ORIENTED_EDGE('',*,*,#202,.T.);
#273=ORIENTED_EDGE('',*,*,#198,.T.);
#274=ORIENTED_EDGE('',*,*,#196,.F.);
#275=ORIENTED_EDGE('',*,*,#195,.F.);
#276=ORIENTED_EDGE('',*,*,#190,.F.);
#277=ORIENTED_EDGE('',*,*,#189,.F.);
#278=ORIENTED_EDGE('',*,*,#203,.T.);
#279=ORIENTED_EDGE('',*,*,#201,.F.);
#280=ORIENTED_EDGE('',*,*,#204,.F.);
#281=ORIENTED_EDGE('',*,*,#205,.F.);
#282=ORIENTED_EDGE('',*,*,#206,.F.);
#283=ORIENTED_EDGE('',*,*,#207,.F.);
#284=ORIENTED_EDGE('',*,*,#208,.T.);
#285=ORIENTED_EDGE('',*,*,#209,.F.);
#286=ORIENTED_EDGE('',*,*,#208,.F.);
#287=ORIENTED_EDGE('',*,*,#210,.F.);
#288=ORIENTED_EDGE('',*,*,#210,.T.);
#289=ORIENTED_EDGE('',*,*,#207,.T.);
#290=ORIENTED_EDGE('',*,*,#211,.T.);
#291=ORIENTED_EDGE('',*,*,#212,.T.);
#292=ORIENTED_EDGE('',*,*,#213,.T.);
#293=ORIENTED_EDGE('',*,*,#214,.T.);
#294=ORIENTED_EDGE('',*,*,#206,.T.);
#295=ORIENTED_EDGE('',*,*,#215,.F.);
#296=ORIENTED_EDGE('',*,*,#216,.T.);
#297=ORIENTED_EDGE('',*,*,#211,.F.);
#298=ORIENTED_EDGE('',*,*,#204,.T.);
#299=ORIENTED_EDGE('',*,*,#214,.F.);
#300=ORIENTED_EDGE('',*,*,#217,.F.);
#301=ORIENTED_EDGE('',*,*,#218,.F.);
#302=ORIENTED_EDGE('',*,*,#217,.T.);
#303=ORIENTED_EDGE('',*,*,#213,.F.);
#304=ORIENTED_EDGE('',*,*,#219,.T.);
#305=ORIENTED_EDGE('',*,*,#220,.F.);
#306=ORIENTED_EDGE('',*,*,#219,.F.);
#307=ORIENTED_EDGE('',*,*,#212,.F.);
#308=ORIENTED_EDGE('',*,*,#216,.F.);
#309=ORIENTED_EDGE('',*,*,#221,.F.);
#310=ORIENTED_EDGE('',*,*,#205,.T.);
#311=ORIENTED_EDGE('',*,*,#218,.T.);
#312=ORIENTED_EDGE('',*,*,#221,.T.);
#313=ORIENTED_EDGE('',*,*,#215,.T.);
#314=ORIENTED_EDGE('',*,*,#200,.T.);
#315=ORIENTED_EDGE('',*,*,#220,.T.);
#316=ORIENTED_EDGE('',*,*,#194,.F.);
#317=ORIENTED_EDGE('',*,*,#199,.F.);
#318=ORIENTED_EDGE('',*,*,#202,.F.);
#319=ORIENTED_EDGE('',*,*,#203,.F.);
#320=ORIENTED_EDGE('',*,*,#188,.F.);
#321=ORIENTED_EDGE('',*,*,#209,.T.);
#322=B_SPLINE_SURFACE_WITH_KNOTS('',3,3,((#465,#466,#467,#468,#469,#470),
(#471,#472,#473,#474,#475,#476),(#477,#478,#479,#480,#481,#482),(#483,#484,
#485,#486,#487,#488),(#489,#490,#491,#492,#493,#494),(#495,#496,#497,#498,
#499,#500),(#501,#502,#503,#504,#505,#506)),.UNSPECIFIED.,.F.,.F.,.F.,(4,
1,1,1,4),(4,1,1,4),(0.,0.285714285714286,0.571428571428571,0.857142857142857,
1.),(3.99416679896354,4.33659557763879,4.67902435631403,6.39116824969025),
 .UNSPECIFIED.);
#323=B_SPLINE_SURFACE_WITH_KNOTS('',3,3,((#537,#538,#539,#540,#541,#542,
#543,#544),(#545,#546,#547,#548,#549,#550,#551,#552),(#553,#554,#555,#556,
#557,#558,#559,#560),(#561,#562,#563,#564,#565,#566,#567,#568),(#569,#570,
#571,#572,#573,#574,#575,#576),(#577,#578,#579,#580,#581,#582,#583,#584),
(#585,#586,#587,#588,#589,#590,#591,#592)),.UNSPECIFIED.,.F.,.F.,.F.,(4,
1,1,1,4),(4,1,1,1,1,4),(0.,0.285714285714286,0.571428571428571,0.857142857142857,
1.),(3.2886101166246,3.38940392855443,3.5909915524141,3.79257917627376,
3.89337298820359,3.99416680013342),.UNSPECIFIED.);
#324=B_SPLINE_SURFACE_WITH_KNOTS('',3,3,((#618,#619,#620,#621,#622,#623),
(#624,#625,#626,#627,#628,#629),(#630,#631,#632,#633,#634,#635),(#636,#637,
#638,#639,#640,#641),(#642,#643,#644,#645,#646,#647),(#648,#649,#650,#651,
#652,#653),(#654,#655,#656,#657,#658,#659)),.UNSPECIFIED.,.F.,.F.,.F.,(4,
1,1,1,4),(4,1,1,4),(0.,0.285714285714286,0.571428571428571,0.857142857142857,
1.),(0.891476459828263,1.91881945501646,2.94616245020466,3.2886101152674),
 .UNSPECIFIED.);
#325=B_SPLINE_SURFACE_WITH_KNOTS('',3,3,((#681,#682,#683,#684,#685,#686,
#687,#688,#689,#690,#691,#692,#693,#694,#695,#696,#697,#698,#699),(#700,
#701,#702,#703,#704,#705,#706,#707,#708,#709,#710,#711,#712,#713,#714,#715,
#716,#717,#718),(#719,#720,#721,#722,#723,#724,#725,#726,#727,#728,#729,
#730,#731,#732,#733,#734,#735,#736,#737),(#738,#739,#740,#741,#742,#743,
#744,#745,#746,#747,#748,#749,#750,#751,#752,#753,#754,#755,#756),(#757,
#758,#759,#760,#761,#762,#763,#764,#765,#766,#767,#768,#769,#770,#771,#772,
#773,#774,#775),(#776,#777,#778,#779,#780,#781,#782,#783,#784,#785,#786,
#787,#788,#789,#790,#791,#792,#793,#794),(#795,#796,#797,#798,#799,#800,
#801,#802,#803,#804,#805,#806,#807,#808,#809,#810,#811,#812,#813)),
 .UNSPECIFIED.,.F.,.F.,.F.,(4,1,1,1,4),(4,1,1,1,1,1,1,1,1,1,1,1,1,1,2,4),
(0.,0.285714285714286,0.571428571428571,0.857142857142857,1.),(-0.891476459828263,
-0.853173744710876,-0.722127487831253,-0.646638499878014,-0.575549725780441,
-0.508831360390383,-0.445309076500658,-0.384407999935076,-0.325436231966017,
-0.268174577033972,-0.212267946511684,-0.157612262903421,-0.104258326473186,
-0.0519284758534634,-0.00600000000000003,-3.32180094083864E-17),
 .UNSPECIFIED.);
#326=B_SPLINE_SURFACE_WITH_KNOTS('',3,3,((#853,#854,#855,#856,#857,#858,
#859,#860),(#861,#862,#863,#864,#865,#866,#867,#868),(#869,#870,#871,#872,
#873,#874,#875,#876),(#877,#878,#879,#880,#881,#882,#883,#884),(#885,#886,
#887,#888,#889,#890,#891,#892),(#893,#894,#895,#896,#897,#898,#899,#900),
(#901,#902,#903,#904,#905,#906,#907,#908)),.UNSPECIFIED.,.F.,.F.,.F.,(4,
1,1,1,4),(4,2,1,1,4),(0.,0.285714285714286,0.571428571428571,0.857142857142857,
1.),(6.39116824969025,6.52365311200615,6.68647339379669,6.76788353469196,
6.9307038164825),.UNSPECIFIED.);
#327=B_SPLINE_SURFACE_WITH_KNOTS('',3,3,((#951,#952,#953,#954,#955,#956,
#957),(#958,#959,#960,#961,#962,#963,#964),(#965,#966,#967,#968,#969,#970,
#971),(#972,#973,#974,#975,#976,#977,#978),(#979,#980,#981,#982,#983,#984,
#985)),.UNSPECIFIED.,.F.,.F.,.F.,(4,1,4),(4,1,1,1,4),(0.,0.571428571428571,
1.),(-1.03150326239435,-0.287989094054566,0.0837679901153265,0.827282158455112,
1.5707963267949),.UNSPECIFIED.);
#328=B_SPLINE_SURFACE_WITH_KNOTS('',3,3,((#1002,#1003,#1004,#1005,#1006,
#1007),(#1008,#1009,#1010,#1011,#1012,#1013),(#1014,#1015,#1016,#1017,#1018,
#1019),(#1020,#1021,#1022,#1023,#1024,#1025)),.UNSPECIFIED.,.F.,.F.,.F.,
(4,4),(4,2,4),(0.,1.),(2.37674965095687,2.89017960492426,2.89129223893978),
 .UNSPECIFIED.);
#329=ADVANCED_FACE('',(#80),#322,.T.);
#330=ADVANCED_FACE('',(#81),#323,.T.);
#331=ADVANCED_FACE('',(#82),#324,.T.);
#332=ADVANCED_FACE('',(#83),#325,.T.);
#333=ADVANCED_FACE('',(#84),#326,.T.);
#334=ADVANCED_FACE('',(#85),#71,.T.);
#335=ADVANCED_FACE('',(#86),#327,.T.);
#336=ADVANCED_FACE('',(#87),#29,.T.);
#337=ADVANCED_FACE('',(#88),#72,.F.);
#338=ADVANCED_FACE('',(#89),#328,.T.);
#339=ADVANCED_FACE('',(#90),#73,.T.);
#340=ADVANCED_FACE('',(#91),#30,.T.);
#341=ADVANCED_FACE('',(#92),#31,.F.);
#342=ADVANCED_FACE('',(#93),#74,.T.);
#343=ADVANCED_FACE('',(#94),#75,.T.);
#344=ADVANCED_FACE('',(#95),#76,.T.);
#345=ADVANCED_FACE('',(#96),#32,.T.);
#346=ADVANCED_FACE('',(#97),#77,.T.);
#347=ADVANCED_FACE('',(#98,#15),#78,.T.);
#348=ADVANCED_FACE('',(#99,#16),#79,.F.);
#349=CLOSED_SHELL('',(#329,#330,#331,#332,#333,#334,#335,#336,#337,#338,
#339,#340,#341,#342,#343,#344,#345,#346,#347,#348));
#350=DERIVED_UNIT_ELEMENT(#352,1.);
#351=DERIVED_UNIT_ELEMENT(#1093,-3.);
#352=(
MASS_UNIT()
NAMED_UNIT(*)
SI_UNIT(.KILO.,.GRAM.)
);
#353=DERIVED_UNIT((#350,#351));
#354=MEASURE_REPRESENTATION_ITEM('density measure',
POSITIVE_RATIO_MEASURE(7850.),#353);
#355=PROPERTY_DEFINITION_REPRESENTATION(#360,#357);
#356=PROPERTY_DEFINITION_REPRESENTATION(#361,#358);
#357=REPRESENTATION('material name',(#359),#1090);
#358=REPRESENTATION('density',(#354),#1090);
#359=DESCRIPTIVE_REPRESENTATION_ITEM('Steel','Steel');
#360=PROPERTY_DEFINITION('material property','material name',#1100);
#361=PROPERTY_DEFINITION('material property','density of part',#1100);
#362=AXIS2_PLACEMENT_3D('',#464,#390,#391);
#363=AXIS2_PLACEMENT_3D('',#945,#392,#393);
#364=AXIS2_PLACEMENT_3D('',#987,#397,#398);
#365=AXIS2_PLACEMENT_3D('',#996,#399,#400);
#366=AXIS2_PLACEMENT_3D('',#997,#401,#402);
#367=AXIS2_PLACEMENT_3D('',#1000,#404,#405);
#368=AXIS2_PLACEMENT_3D('',#1001,#406,#407);
#369=AXIS2_PLACEMENT_3D('',#1039,#409,#410);
#370=AXIS2_PLACEMENT_3D('',#1043,#413,#414);
#371=AXIS2_PLACEMENT_3D('',#1045,#415,#416);
#372=AXIS2_PLACEMENT_3D('',#1048,#418,#419);
#373=AXIS2_PLACEMENT_3D('',#1049,#420,#421);
#374=AXIS2_PLACEMENT_3D('',#1050,#422,#423);
#375=AXIS2_PLACEMENT_3D('',#1055,#425,#426);
#376=AXIS2_PLACEMENT_3D('',#1059,#428,#429);
#377=AXIS2_PLACEMENT_3D('',#1062,#431,#432);
#378=AXIS2_PLACEMENT_3D('',#1063,#433,#434);
#379=AXIS2_PLACEMENT_3D('',#1064,#435,#436);
#380=AXIS2_PLACEMENT_3D('',#1068,#438,#439);
#381=AXIS2_PLACEMENT_3D('',#1070,#440,#441);
#382=AXIS2_PLACEMENT_3D('',#1072,#443,#444);
#383=AXIS2_PLACEMENT_3D('',#1076,#447,#448);
#384=AXIS2_PLACEMENT_3D('',#1080,#451,#452);
#385=AXIS2_PLACEMENT_3D('',#1083,#454,#455);
#386=AXIS2_PLACEMENT_3D('',#1084,#456,#457);
#387=AXIS2_PLACEMENT_3D('',#1085,#458,#459);
#388=AXIS2_PLACEMENT_3D('',#1086,#460,#461);
#389=AXIS2_PLACEMENT_3D('',#1087,#462,#463);
#390=DIRECTION('axis',(0.,0.,1.));
#391=DIRECTION('refdir',(1.,0.,0.));
#392=DIRECTION('center_axis',(0.,1.,0.));
#393=DIRECTION('ref_axis',(-1.,0.,0.));
#394=DIRECTION('',(0.,0.,1.));
#395=DIRECTION('',(-1.,0.,0.));
#396=DIRECTION('',(0.,0.,1.));
#397=DIRECTION('center_axis',(-0.0963200082324205,0.,-0.995350418703939));
#398=DIRECTION('ref_axis',(0.995350418703939,0.,-0.0963200082324206));
#399=DIRECTION('center_axis',(0.0632739571893672,0.,0.997996195554672));
#400=DIRECTION('ref_axis',(0.997996195554672,0.,-0.0632739571893672));
#401=DIRECTION('center_axis',(0.,0.,1.));
#402=DIRECTION('ref_axis',(1.,0.,0.));
#403=DIRECTION('',(0.,0.,1.));
#404=DIRECTION('center_axis',(0.,0.,1.));
#405=DIRECTION('ref_axis',(1.,0.,0.));
#406=DIRECTION('center_axis',(-0.0632739571893672,0.,-0.997996195554672));
#407=DIRECTION('ref_axis',(0.997996195554671,0.,-0.0632739571893672));
#408=DIRECTION('',(1.,0.,0.));
#409=DIRECTION('center_axis',(0.,-1.,0.));
#410=DIRECTION('ref_axis',(1.,0.,0.));
#411=DIRECTION('',(0.,0.,1.));
#412=DIRECTION('',(1.,0.,0.));
#413=DIRECTION('center_axis',(0.,0.,1.));
#414=DIRECTION('ref_axis',(1.,0.,0.));
#415=DIRECTION('center_axis',(0.,0.,1.));
#416=DIRECTION('ref_axis',(-1.,0.,0.));
#417=DIRECTION('',(0.,0.,-1.));
#418=DIRECTION('center_axis',(0.,0.,1.));
#419=DIRECTION('ref_axis',(1.,0.,0.));
#420=DIRECTION('center_axis',(0.,0.,1.));
#421=DIRECTION('ref_axis',(1.,0.,0.));
#422=DIRECTION('center_axis',(0.,0.,-1.));
#423=DIRECTION('ref_axis',(-1.,0.,0.));
#424=DIRECTION('',(0.,0.,1.));
#425=DIRECTION('center_axis',(0.,0.,-1.));
#426=DIRECTION('ref_axis',(-1.,0.,0.));
#427=DIRECTION('',(0.,0.,-1.));
#428=DIRECTION('center_axis',(0.,0.,-1.));
#429=DIRECTION('ref_axis',(-1.,0.,0.));
#430=DIRECTION('',(0.,0.,-1.));
#431=DIRECTION('center_axis',(0.,0.,1.));
#432=DIRECTION('ref_axis',(-1.,0.,0.));
#433=DIRECTION('center_axis',(0.,0.,-1.));
#434=DIRECTION('ref_axis',(-1.,0.,0.));
#435=DIRECTION('center_axis',(0.,0.,1.));
#436=DIRECTION('ref_axis',(-1.,0.,0.));
#437=DIRECTION('',(0.,-1.,0.));
#438=DIRECTION('center_axis',(0.,0.,1.));
#439=DIRECTION('ref_axis',(-1.,0.,0.));
#440=DIRECTION('center_axis',(0.,0.,1.));
#441=DIRECTION('ref_axis',(-1.,0.,0.));
#442=DIRECTION('',(0.,-1.,0.));
#443=DIRECTION('center_axis',(-1.,0.,0.));
#444=DIRECTION('ref_axis',(0.,-1.,0.));
#445=DIRECTION('',(0.,1.,0.));
#446=DIRECTION('',(0.,0.,1.));
#447=DIRECTION('center_axis',(-1.,0.,0.));
#448=DIRECTION('ref_axis',(0.,-1.,0.));
#449=DIRECTION('',(0.,0.,1.));
#450=DIRECTION('',(0.,1.,0.));
#451=DIRECTION('center_axis',(0.,0.,1.));
#452=DIRECTION('ref_axis',(-1.,0.,0.));
#453=DIRECTION('',(0.,0.,-1.));
#454=DIRECTION('center_axis',(0.,0.,-1.));
#455=DIRECTION('ref_axis',(-1.,0.,0.));
#456=DIRECTION('center_axis',(0.,0.,1.));
#457=DIRECTION('ref_axis',(-1.,0.,0.));
#458=DIRECTION('center_axis',(0.,0.,1.));
#459=DIRECTION('ref_axis',(-1.,0.,0.));
#460=DIRECTION('center_axis',(0.,0.,1.));
#461=DIRECTION('ref_axis',(-1.,0.,0.));
#462=DIRECTION('center_axis',(0.,0.,1.));
#463=DIRECTION('ref_axis',(1.,0.,0.));
#464=CARTESIAN_POINT('',(0.,0.,0.));
#465=CARTESIAN_POINT('Ctrl Pts',(35.250000044758,0.,3.90481000086835));
#466=CARTESIAN_POINT('Ctrl Pts',(34.1053982764832,0.,3.97737889803177));
#467=CARTESIAN_POINT('Ctrl Pts',(31.8406127267357,0.,4.12096856756771));
#468=CARTESIAN_POINT('Ctrl Pts',(23.8415118166415,0.,4.62811956753463));
#469=CARTESIAN_POINT('Ctrl Pts',(17.0439114859351,0.,5.05909422879223));
#470=CARTESIAN_POINT('Ctrl Pts',(11.3256545900983,0.,5.42163743650845));
#471=CARTESIAN_POINT('Ctrl Pts',(35.2662037766335,5.68630666141521E-17,
4.16038533523711));
#472=CARTESIAN_POINT('Ctrl Pts',(34.1216020083586,5.68630666141521E-17,
4.23295423240054));
#473=CARTESIAN_POINT('Ctrl Pts',(31.8568164586112,2.44884144467131E-17,
4.37654390193648));
#474=CARTESIAN_POINT('Ctrl Pts',(23.857715548517,2.41900037398363E-17,4.88369490190339));
#475=CARTESIAN_POINT('Ctrl Pts',(17.0601152178105,0.,5.31466956316099));
#476=CARTESIAN_POINT('Ctrl Pts',(11.3418583219737,0.,5.67721277087722));
#477=CARTESIAN_POINT('Ctrl Pts',(35.3076949218748,0.138802351045268,4.81480947653232));
#478=CARTESIAN_POINT('Ctrl Pts',(34.1630931535999,0.138802351045268,4.88737837369575));
#479=CARTESIAN_POINT('Ctrl Pts',(31.8983076038525,0.138802351045268,5.03096804323169));
#480=CARTESIAN_POINT('Ctrl Pts',(23.8992066937582,0.138802351045268,5.5381190431986));
#481=CARTESIAN_POINT('Ctrl Pts',(17.1016063630518,0.138802351045268,5.9690937044562));
#482=CARTESIAN_POINT('Ctrl Pts',(11.383349467215,0.138802351045268,6.33163691217243));
#483=CARTESIAN_POINT('Ctrl Pts',(35.3764254229965,1.01494073551176,5.8988696757831));
#484=CARTESIAN_POINT('Ctrl Pts',(34.2318236547217,1.01494073551176,5.97143857294653));
#485=CARTESIAN_POINT('Ctrl Pts',(31.9670381049742,1.01494073551176,6.11502824248247));
#486=CARTESIAN_POINT('Ctrl Pts',(23.9679371948801,1.01494073551176,6.62217924244938));
#487=CARTESIAN_POINT('Ctrl Pts',(17.1703368641736,1.01494073551176,7.05315390370698));
#488=CARTESIAN_POINT('Ctrl Pts',(11.4520799683368,1.01494073551176,7.4156971114232));
#489=CARTESIAN_POINT('Ctrl Pts',(35.4052831297263,1.94524513452399,6.35403136959815));
#490=CARTESIAN_POINT('Ctrl Pts',(34.2606813614514,1.94524513452399,6.42660026676157));
#491=CARTESIAN_POINT('Ctrl Pts',(31.995895811704,1.94524513452399,6.57018993629751));
#492=CARTESIAN_POINT('Ctrl Pts',(23.9967949016097,1.94524513452399,7.07734093626443));
#493=CARTESIAN_POINT('Ctrl Pts',(17.1991945709033,1.94524513452399,7.50831559752203));
#494=CARTESIAN_POINT('Ctrl Pts',(11.4809376750665,1.94524513452399,7.87085880523825));
#495=CARTESIAN_POINT('Ctrl Pts',(35.4081849377314,2.37195575719268,6.39980048975503));
#496=CARTESIAN_POINT('Ctrl Pts',(34.2635831694566,2.37195575719268,6.47236938691845));
#497=CARTESIAN_POINT('Ctrl Pts',(31.9987976197091,2.37195575719268,6.61595905645439));
#498=CARTESIAN_POINT('Ctrl Pts',(23.9996967096149,2.37195575719268,7.12311005642131));
#499=CARTESIAN_POINT('Ctrl Pts',(17.2020963789085,2.37195575719268,7.55408471767891));
#500=CARTESIAN_POINT('Ctrl Pts',(11.4838394830717,2.37195575719268,7.91662792539513));
#501=CARTESIAN_POINT('Ctrl Pts',(35.4081849377314,2.5,6.39980048975503));
#502=CARTESIAN_POINT('Ctrl Pts',(34.2635831694566,2.5,6.47236938691845));
#503=CARTESIAN_POINT('Ctrl Pts',(31.9987976197092,2.5,6.61595905645439));
#504=CARTESIAN_POINT('Ctrl Pts',(23.9996967096149,2.5,7.12311005642131));
#505=CARTESIAN_POINT('Ctrl Pts',(17.2020963789085,2.5,7.55408471767891));
#506=CARTESIAN_POINT('Ctrl Pts',(11.4838394830717,2.5,7.91662792539513));
#507=CARTESIAN_POINT('',(35.250000044758,0.,3.90481000086835));
#508=CARTESIAN_POINT('',(35.4081849377314,2.5,6.39980048975503));
#509=CARTESIAN_POINT('Ctrl Pts',(35.250000044758,0.,3.90481000086835));
#510=CARTESIAN_POINT('Ctrl Pts',(35.2662037766335,5.68630666141521E-17,
4.16038533523711));
#511=CARTESIAN_POINT('Ctrl Pts',(35.3076949218748,0.138802351045268,4.81480947653232));
#512=CARTESIAN_POINT('Ctrl Pts',(35.3764254229965,1.01494073551176,5.8988696757831));
#513=CARTESIAN_POINT('Ctrl Pts',(35.4052831297263,1.94524513452399,6.35403136959815));
#514=CARTESIAN_POINT('Ctrl Pts',(35.4081849377314,2.37195575719268,6.39980048975503));
#515=CARTESIAN_POINT('Ctrl Pts',(35.4081849377314,2.5,6.39980048975503));
#516=CARTESIAN_POINT('',(11.4838394830717,2.5,7.91662792539513));
#517=CARTESIAN_POINT('Ctrl Pts',(35.4081849377314,2.5,6.39980048975503));
#518=CARTESIAN_POINT('Ctrl Pts',(34.2635831694566,2.5,6.47236938691845));
#519=CARTESIAN_POINT('Ctrl Pts',(31.9987976197092,2.5,6.61595905645439));
#520=CARTESIAN_POINT('Ctrl Pts',(23.9996967096149,2.5,7.12311005642131));
#521=CARTESIAN_POINT('Ctrl Pts',(17.2020963789085,2.5,7.55408471767891));
#522=CARTESIAN_POINT('Ctrl Pts',(11.4838394830717,2.5,7.91662792539513));
#523=CARTESIAN_POINT('',(11.3256545900983,0.,5.42163743650845));
#524=CARTESIAN_POINT('Ctrl Pts',(11.4838394830717,2.5,7.91662792539513));
#525=CARTESIAN_POINT('Ctrl Pts',(11.4838394830717,2.37195575719268,7.91662792539513));
#526=CARTESIAN_POINT('Ctrl Pts',(11.4809376750665,1.94524513452399,7.87085880523825));
#527=CARTESIAN_POINT('Ctrl Pts',(11.4520799683368,1.01494073551176,7.4156971114232));
#528=CARTESIAN_POINT('Ctrl Pts',(11.383349467215,0.138802351045268,6.33163691217243));
#529=CARTESIAN_POINT('Ctrl Pts',(11.3418583219737,0.,5.67721277087722));
#530=CARTESIAN_POINT('Ctrl Pts',(11.3256545900983,0.,5.42163743650845));
#531=CARTESIAN_POINT('Ctrl Pts',(11.3256545900983,0.,5.42163743650845));
#532=CARTESIAN_POINT('Ctrl Pts',(17.0439114859351,0.,5.05909422879223));
#533=CARTESIAN_POINT('Ctrl Pts',(23.8415118166415,0.,4.62811956753463));
#534=CARTESIAN_POINT('Ctrl Pts',(31.8406127267357,0.,4.12096856756771));
#535=CARTESIAN_POINT('Ctrl Pts',(34.1053982764832,0.,3.97737889803177));
#536=CARTESIAN_POINT('Ctrl Pts',(35.250000044758,0.,3.90481000086835));
#537=CARTESIAN_POINT('Ctrl Pts',(35.2499999480748,9.5,3.90481000526547));
#538=CARTESIAN_POINT('Ctrl Pts',(35.9612620033669,9.50000000777524,3.88344934565275));
#539=CARTESIAN_POINT('Ctrl Pts',(38.0969884837177,9.03487867584346,3.81930909518778));
#540=CARTESIAN_POINT('Ctrl Pts',(40.5534041845718,5.96226267700405,3.74553788911414));
#541=CARTESIAN_POINT('Ctrl Pts',(39.6732647677883,2.13097334564574,3.77197028256713));
#542=CARTESIAN_POINT('Ctrl Pts',(37.3714335257303,0.326399121994497,3.84109900000918));
#543=CARTESIAN_POINT('Ctrl Pts',(35.961261268114,1.04402888441053E-8,3.8834493677339));
#544=CARTESIAN_POINT('Ctrl Pts',(35.2500000697231,2.34187669256869E-16,
3.90481000161212));
#545=CARTESIAN_POINT('Ctrl Pts',(35.2662036799559,9.50000000017713,4.16038533972262));
#546=CARTESIAN_POINT('Ctrl Pts',(35.9770157971922,9.49768269898796,4.1378953447864));
#547=CARTESIAN_POINT('Ctrl Pts',(38.1085163590547,9.02423605529353,4.07034159964281));
#548=CARTESIAN_POINT('Ctrl Pts',(40.5481450012874,5.95669874291868,3.99291926737202));
#549=CARTESIAN_POINT('Ctrl Pts',(39.6748753728298,2.1403818781776,4.02066770730061));
#550=CARTESIAN_POINT('Ctrl Pts',(37.3845800038403,0.333668286945273,4.09326594110645));
#551=CARTESIAN_POINT('Ctrl Pts',(35.9770150623497,0.00231731683767291,4.13789536802367));
#552=CARTESIAN_POINT('Ctrl Pts',(35.2662038015911,2.37847642404892E-10,
4.1603853358622));
#553=CARTESIAN_POINT('Ctrl Pts',(35.307698396854,9.36119311128821,4.81486579147732));
#554=CARTESIAN_POINT('Ctrl Pts',(35.9980436706767,9.35378952369193,4.78888254176282));
#555=CARTESIAN_POINT('Ctrl Pts',(38.0604028898551,8.87881911584156,4.71119182510031));
#556=CARTESIAN_POINT('Ctrl Pts',(40.3956498759656,5.90986957846838,4.62293100321679));
#557=CARTESIAN_POINT('Ctrl Pts',(39.5619435467736,2.2367893862981,4.65446377634818));
#558=CARTESIAN_POINT('Ctrl Pts',(37.3600337324675,0.47670418453491,4.73757836896645));
#559=CARTESIAN_POINT('Ctrl Pts',(35.9980429566401,0.146210486322674,4.78888256863582));
#560=CARTESIAN_POINT('Ctrl Pts',(35.3076985148975,0.138806889974113,4.81486578703513));
#561=CARTESIAN_POINT('Ctrl Pts',(35.3764274277833,8.48505228576067,5.89890265087376));
#562=CARTESIAN_POINT('Ctrl Pts',(35.9352862678535,8.47774807367547,5.86908337300707));
#563=CARTESIAN_POINT('Ctrl Pts',(37.6029931941871,8.08889959793809,5.78004409305599));
#564=CARTESIAN_POINT('Ctrl Pts',(39.4853513141052,5.68662842867917,5.67953542771296));
#565=CARTESIAN_POINT('Ctrl Pts',(38.81381212829,2.71928356758185,5.71541007182439));
#566=CARTESIAN_POINT('Ctrl Pts',(37.0367067197662,1.2923938531597,5.81026540963225));
#567=CARTESIAN_POINT('Ctrl Pts',(35.9352856897521,1.02225193308347,5.86908340384548));
#568=CARTESIAN_POINT('Ctrl Pts',(35.3764275233465,1.01494771548997,5.89890264576726));
#569=CARTESIAN_POINT('Ctrl Pts',(35.4052845815392,7.55475336982262,6.35405546243945));
#570=CARTESIAN_POINT('Ctrl Pts',(35.8246751095815,7.55217330095649,6.32780265214537));
#571=CARTESIAN_POINT('Ctrl Pts',(37.0806932249171,7.26869520327635,6.24923309614888));
#572=CARTESIAN_POINT('Ctrl Pts',(38.5125446816046,5.45981359506946,6.15971108551781));
#573=CARTESIAN_POINT('Ctrl Pts',(38.0004329440693,3.21376064211048,6.19171342796735));
#574=CARTESIAN_POINT('Ctrl Pts',(36.6541810734102,2.14579360322811,6.27592213505673));
#575=CARTESIAN_POINT('Ctrl Pts',(35.8246746759616,1.94782670712451,6.32780267929506));
#576=CARTESIAN_POINT('Ctrl Pts',(35.4052846533165,1.94524663062431,6.35405545795194));
#577=CARTESIAN_POINT('Ctrl Pts',(35.4081848669831,7.12804424285182,6.39980049424053));
#578=CARTESIAN_POINT('Ctrl Pts',(35.7646544436164,7.12738610977528,6.37725788185181));
#579=CARTESIAN_POINT('Ctrl Pts',(36.8335936752742,6.8933760879721,6.30958702259922));
#580=CARTESIAN_POINT('Ctrl Pts',(38.059966699118,5.35558013414634,6.23195017699955));
#581=CARTESIAN_POINT('Ctrl Pts',(37.6209644566567,3.44128186468297,6.25976315961786));
#582=CARTESIAN_POINT('Ctrl Pts',(36.4703510316938,2.53657693560861,6.33256624693578));
#583=CARTESIAN_POINT('Ctrl Pts',(35.7646540750109,2.37261389866525,6.37725790515181));
#584=CARTESIAN_POINT('Ctrl Pts',(35.4081849278721,2.3719557572521,6.39980049038012));
#585=CARTESIAN_POINT('Ctrl Pts',(35.4081848683773,7.00000000000023,6.39980049415215));
#586=CARTESIAN_POINT('Ctrl Pts',(35.7450984735156,7.00000000368324,6.37843983453942));
#587=CARTESIAN_POINT('Ctrl Pts',(36.7567583852608,6.77967937276811,6.31429958407445));
#588=CARTESIAN_POINT('Ctrl Pts',(37.9203237172445,5.32422968910728,6.24052837800082));
#589=CARTESIAN_POINT('Ctrl Pts',(37.5034155724523,3.5094084268848,6.2669607714538));
#590=CARTESIAN_POINT('Ctrl Pts',(36.4130744577931,2.65461011041842,6.33608948889586));
#591=CARTESIAN_POINT('Ctrl Pts',(35.7450981252379,2.50000000494535,6.37843985662058));
#592=CARTESIAN_POINT('Ctrl Pts',(35.4081849260002,2.49999999999995,6.3998004904988));
#593=CARTESIAN_POINT('',(35.2499999480749,9.5,3.90481000526547));
#594=CARTESIAN_POINT('',(35.4081848683773,7.00000000000023,6.39980049415215));
#595=CARTESIAN_POINT('Ctrl Pts',(35.2499999480748,9.5,3.90481000526547));
#596=CARTESIAN_POINT('Ctrl Pts',(35.2662036799559,9.50000000017713,4.16038533972262));
#597=CARTESIAN_POINT('Ctrl Pts',(35.307698396854,9.36119311128821,4.81486579147732));
#598=CARTESIAN_POINT('Ctrl Pts',(35.3764274277833,8.48505228576067,5.89890265087376));
#599=CARTESIAN_POINT('Ctrl Pts',(35.4052845815392,7.55475336982262,6.35405546243945));
#600=CARTESIAN_POINT('Ctrl Pts',(35.4081848669831,7.12804424285182,6.39980049424053));
#601=CARTESIAN_POINT('Ctrl Pts',(35.4081848683773,7.00000000000023,6.39980049415215));
#602=CARTESIAN_POINT('Ctrl Pts',(35.4081848683773,7.00000000000023,6.39980049415215));
#603=CARTESIAN_POINT('Ctrl Pts',(35.7450984735156,7.00000000368324,6.37843983453942));
#604=CARTESIAN_POINT('Ctrl Pts',(36.7567583852608,6.77967937276811,6.31429958407445));
#605=CARTESIAN_POINT('Ctrl Pts',(37.9203237172445,5.32422968910728,6.24052837800082));
#606=CARTESIAN_POINT('Ctrl Pts',(37.5034155724523,3.5094084268848,6.2669607714538));
#607=CARTESIAN_POINT('Ctrl Pts',(36.4130744609569,2.65461011289875,6.33608948869527));
#608=CARTESIAN_POINT('Ctrl Pts',(35.7450981329909,2.50000000673985,6.37843985612903));
#609=CARTESIAN_POINT('Ctrl Pts',(35.4081849377315,2.49999999999995,6.39980048975503));
#610=CARTESIAN_POINT('Ctrl Pts',(35.2500000697231,2.34187669256869E-16,
3.90481000161212));
#611=CARTESIAN_POINT('Ctrl Pts',(35.961261268114,1.04402888441053E-8,3.8834493677339));
#612=CARTESIAN_POINT('Ctrl Pts',(37.3714335257303,0.326399121994497,3.84109900000918));
#613=CARTESIAN_POINT('Ctrl Pts',(39.6732647677883,2.13097334564574,3.77197028256713));
#614=CARTESIAN_POINT('Ctrl Pts',(40.5534041845718,5.96226267700405,3.74553788911414));
#615=CARTESIAN_POINT('Ctrl Pts',(38.0969884837177,9.03487867584346,3.81930909518778));
#616=CARTESIAN_POINT('Ctrl Pts',(35.9612620033669,9.50000000777524,3.88344934565275));
#617=CARTESIAN_POINT('Ctrl Pts',(35.2499999480748,9.5,3.90481000526547));
#618=CARTESIAN_POINT('Ctrl Pts',(11.3256545900983,9.5,5.42163743650845));
#619=CARTESIAN_POINT('Ctrl Pts',(14.7433344629925,9.5,5.20495311353437));
#620=CARTESIAN_POINT('Ctrl Pts',(21.5739300226131,9.49999999999999,4.77188652175533));
#621=CARTESIAN_POINT('Ctrl Pts',(29.5617429546628,9.50000000000001,4.26545119088888));
#622=CARTESIAN_POINT('Ctrl Pts',(34.1053336853735,9.5,3.97738299317274));
#623=CARTESIAN_POINT('Ctrl Pts',(35.2499999617941,9.5,3.90481000612835));
#624=CARTESIAN_POINT('Ctrl Pts',(11.3418583219737,9.5,5.67721277087722));
#625=CARTESIAN_POINT('Ctrl Pts',(14.759538194868,9.5,5.46052844790314));
#626=CARTESIAN_POINT('Ctrl Pts',(21.5901337544886,9.49999999999999,5.02746185612409));
#627=CARTESIAN_POINT('Ctrl Pts',(29.5779466865383,9.50000000000001,4.52102652525765));
#628=CARTESIAN_POINT('Ctrl Pts',(34.121537417249,9.5,4.23295832754151));
#629=CARTESIAN_POINT('Ctrl Pts',(35.2662036936696,9.5,4.16038534049711));
#630=CARTESIAN_POINT('Ctrl Pts',(11.3833523254177,9.36119402421637,6.33168199352224));
#631=CARTESIAN_POINT('Ctrl Pts',(14.801032198312,9.36119402421637,6.11499767054816));
#632=CARTESIAN_POINT('Ctrl Pts',(21.6316277579326,9.36119402421637,5.68193107876911));
#633=CARTESIAN_POINT('Ctrl Pts',(29.6194406899822,9.36119402421637,5.17549574790267));
#634=CARTESIAN_POINT('Ctrl Pts',(34.163031420693,9.36119402421637,4.88742755018653));
#635=CARTESIAN_POINT('Ctrl Pts',(35.3076976971135,9.36119402421637,4.81485456314213));
#636=CARTESIAN_POINT('Ctrl Pts',(11.4520816384928,8.48505367380982,7.41572345416174));
#637=CARTESIAN_POINT('Ctrl Pts',(14.869761511387,8.48505367380982,7.19903913118766));
#638=CARTESIAN_POINT('Ctrl Pts',(21.7003570710076,8.48505367380982,6.76597253940861));
#639=CARTESIAN_POINT('Ctrl Pts',(29.6881700030572,8.48505367380982,6.25953720854218));
#640=CARTESIAN_POINT('Ctrl Pts',(34.231760733768,8.48505367380982,5.97146901082604));
#641=CARTESIAN_POINT('Ctrl Pts',(35.3764270101886,8.48505367380982,5.89889602378164));
#642=CARTESIAN_POINT('Ctrl Pts',(11.4809388962195,7.55475367709878,7.87087806602321));
#643=CARTESIAN_POINT('Ctrl Pts',(14.8986187691138,7.55475367709878,7.65419374304913));
#644=CARTESIAN_POINT('Ctrl Pts',(21.7292143287344,7.55475367709878,7.22112715127008));
#645=CARTESIAN_POINT('Ctrl Pts',(29.7170272607841,7.55475367709878,6.71469182040364));
#646=CARTESIAN_POINT('Ctrl Pts',(34.2606179914948,7.55475367709878,6.4266236226875));
#647=CARTESIAN_POINT('Ctrl Pts',(35.4052842679154,7.55475367709878,6.3540506356431));
#648=CARTESIAN_POINT('Ctrl Pts',(11.4838394830717,7.12804424280732,7.91662792539513));
#649=CARTESIAN_POINT('Ctrl Pts',(14.9015193559659,7.12804424280732,7.69994360242105));
#650=CARTESIAN_POINT('Ctrl Pts',(21.7321149155866,7.12804424280731,7.266877010642));
#651=CARTESIAN_POINT('Ctrl Pts',(29.7199278476362,7.12804424280732,6.76044167977556));
#652=CARTESIAN_POINT('Ctrl Pts',(34.2635185783469,7.12804424280732,6.47237348205942));
#653=CARTESIAN_POINT('Ctrl Pts',(35.4081848547675,7.12804424280732,6.39980049501502));
#654=CARTESIAN_POINT('Ctrl Pts',(11.4838394830717,7.,7.91662792539513));
#655=CARTESIAN_POINT('Ctrl Pts',(14.9015193559659,7.,7.69994360242105));
#656=CARTESIAN_POINT('Ctrl Pts',(21.7321149155865,6.99999999999999,7.266877010642));
#657=CARTESIAN_POINT('Ctrl Pts',(29.7199278476362,7.,6.76044167977556));
#658=CARTESIAN_POINT('Ctrl Pts',(34.2635185783469,7.,6.47237348205942));
#659=CARTESIAN_POINT('Ctrl Pts',(35.4081848547675,7.,6.39980049501502));
#660=CARTESIAN_POINT('',(11.3256545900983,9.5,5.42163743650845));
#661=CARTESIAN_POINT('',(11.4838394830717,7.,7.91662792539513));
#662=CARTESIAN_POINT('Ctrl Pts',(11.3256545900983,9.5,5.42163743650845));
#663=CARTESIAN_POINT('Ctrl Pts',(11.3418583219737,9.5,5.67721277087722));
#664=CARTESIAN_POINT('Ctrl Pts',(11.3833523254177,9.36119402421637,6.33168199352224));
#665=CARTESIAN_POINT('Ctrl Pts',(11.4520816384928,8.48505367380982,7.41572345416174));
#666=CARTESIAN_POINT('Ctrl Pts',(11.4809388962195,7.55475367709878,7.87087806602321));
#667=CARTESIAN_POINT('Ctrl Pts',(11.4838394830717,7.12804424280732,7.91662792539513));
#668=CARTESIAN_POINT('Ctrl Pts',(11.4838394830717,7.,7.91662792539513));
#669=CARTESIAN_POINT('Ctrl Pts',(11.4838394830717,7.,7.91662792539513));
#670=CARTESIAN_POINT('Ctrl Pts',(14.9015193559659,7.,7.69994360242105));
#671=CARTESIAN_POINT('Ctrl Pts',(21.7321149155865,6.99999999999999,7.266877010642));
#672=CARTESIAN_POINT('Ctrl Pts',(29.7199278476362,7.,6.76044167977556));
#673=CARTESIAN_POINT('Ctrl Pts',(34.2635185783469,7.,6.47237348205942));
#674=CARTESIAN_POINT('Ctrl Pts',(35.4081848547675,7.,6.39980049501502));
#675=CARTESIAN_POINT('Ctrl Pts',(35.2499999481843,9.5,3.90481000699122));
#676=CARTESIAN_POINT('Ctrl Pts',(34.1053336763698,9.5,3.97738299374359));
#677=CARTESIAN_POINT('Ctrl Pts',(29.5617429501403,9.50000000000001,4.26545119117561));
#678=CARTESIAN_POINT('Ctrl Pts',(21.5739300226131,9.49999999999999,4.77188652175533));
#679=CARTESIAN_POINT('Ctrl Pts',(14.7433344629925,9.5,5.20495311353437));
#680=CARTESIAN_POINT('Ctrl Pts',(11.3256545900983,9.5,5.42163743650845));
#681=CARTESIAN_POINT('Ctrl Pts',(11.4838394830717,7.00000000000001,7.91662792539513));
#682=CARTESIAN_POINT('Ctrl Pts',(11.4139697754096,7.01886439642946,7.92105773475827));
#683=CARTESIAN_POINT('Ctrl Pts',(11.1036277478663,7.10619062949911,7.95043524611692));
#684=CARTESIAN_POINT('Ctrl Pts',(10.646388092359,7.26072346511355,8.05562817509392));
#685=CARTESIAN_POINT('Ctrl Pts',(10.1207096230795,7.4843897134126,8.25090505309364));
#686=CARTESIAN_POINT('Ctrl Pts',(9.70665471551906,7.68606751680511,8.43858960552178));
#687=CARTESIAN_POINT('Ctrl Pts',(9.30029770304363,7.90410615391093,8.64576371151029));
#688=CARTESIAN_POINT('Ctrl Pts',(8.89192952749645,8.13496899491644,8.86639756164716));
#689=CARTESIAN_POINT('Ctrl Pts',(8.47004497350139,8.37473438753259,9.09759868898557));
#690=CARTESIAN_POINT('Ctrl Pts',(8.02539436440098,8.6165837589555,9.3369115822156));
#691=CARTESIAN_POINT('Ctrl Pts',(7.55046664742521,8.8513769092532,9.5826803263486));
#692=CARTESIAN_POINT('Ctrl Pts',(7.04175611565218,9.06738798855246,9.83311084853882));
#693=CARTESIAN_POINT('Ctrl Pts',(6.50041392881827,9.25168335411193,10.0863342421307));
#694=CARTESIAN_POINT('Ctrl Pts',(5.93238406215528,9.3922075457754,10.3405113209835));
#695=CARTESIAN_POINT('Ctrl Pts',(5.36824540894572,9.47670316111253,10.5849684045959));
#696=CARTESIAN_POINT('Ctrl Pts',(4.99393580842735,9.49758993035937,10.7446247426552));
#697=CARTESIAN_POINT('Ctrl Pts',(4.7957956145295,9.49986832909191,10.8290653070351));
#698=CARTESIAN_POINT('Ctrl Pts',(4.77289784851431,9.5,10.8388224838775));
#699=CARTESIAN_POINT('Ctrl Pts',(4.75,9.5,10.8485796544753));
#700=CARTESIAN_POINT('Ctrl Pts',(11.4838394830717,7.25608848561465,7.91662792539513));
#701=CARTESIAN_POINT('Ctrl Pts',(11.4137948343332,7.27403258609895,7.91921957063572));
#702=CARTESIAN_POINT('Ctrl Pts',(11.1021259601474,7.35685824251077,7.94007926584262));
#703=CARTESIAN_POINT('Ctrl Pts',(10.6388664787133,7.50171191855263,8.03063243850898));
#704=CARTESIAN_POINT('Ctrl Pts',(10.1003647021167,7.70999713894311,8.21094913454588));
#705=CARTESIAN_POINT('Ctrl Pts',(9.67369891271237,7.89591413364573,8.38826174700428));
#706=CARTESIAN_POINT('Ctrl Pts',(9.25390203229885,8.09510480526239,8.58777319540535));
#707=CARTESIAN_POINT('Ctrl Pts',(8.83273821616364,8.3039312587939,8.80368089380882));
#708=CARTESIAN_POINT('Ctrl Pts',(8.40019869377618,8.51869966769491,9.03332395699741));
#709=CARTESIAN_POINT('Ctrl Pts',(7.9486237840168,8.73322461173103,9.27430356480322));
#710=CARTESIAN_POINT('Ctrl Pts',(7.47196341845782,8.93955503042295,9.52490780374219));
#711=CARTESIAN_POINT('Ctrl Pts',(6.9677868778775,9.12774706535463,9.7831013297223));
#712=CARTESIAN_POINT('Ctrl Pts',(6.43759325642099,9.28711007870122,10.0465936299296));
#713=CARTESIAN_POINT('Ctrl Pts',(5.88671276558412,9.40787462432679,10.3129601773294));
#714=CARTESIAN_POINT('Ctrl Pts',(5.3433851693134,9.48017255818838,10.570363143299));
#715=CARTESIAN_POINT('Ctrl Pts',(4.98410594752857,9.49793791044026,10.7388564141086));
#716=CARTESIAN_POINT('Ctrl Pts',(4.79394145957292,9.49988755212344,10.8279775872357));
#717=CARTESIAN_POINT('Ctrl Pts',(4.77197562488522,9.5,10.8382814732011));
#718=CARTESIAN_POINT('Ctrl Pts',(4.75,9.5,10.8485796544753));
#719=CARTESIAN_POINT('Ctrl Pts',(11.4750580060462,7.91159608523123,7.77812100956298));
#720=CARTESIAN_POINT('Ctrl Pts',(11.401644508494,7.92573228659508,7.77686729240747));
#721=CARTESIAN_POINT('Ctrl Pts',(11.0739645433239,7.99087127945306,7.780964013263));
#722=CARTESIAN_POINT('Ctrl Pts',(10.5798219361466,8.10392066911606,7.84953141837044));
#723=CARTESIAN_POINT('Ctrl Pts',(9.99843841567227,8.26140847840415,8.01037155277282));
#724=CARTESIAN_POINT('Ctrl Pts',(9.53657770249685,8.39946518965765,8.17836382339426));
#725=CARTESIAN_POINT('Ctrl Pts',(9.08433276266004,8.54444682990153,8.37516793479803));
#726=CARTESIAN_POINT('Ctrl Pts',(8.63639392746529,8.69354636833128,8.59513881579453));
#727=CARTESIAN_POINT('Ctrl Pts',(8.18548405460251,8.84399726495904,8.83532514159085));
#728=CARTESIAN_POINT('Ctrl Pts',(7.72660774168073,8.99158752319669,9.0929362529393));
#729=CARTESIAN_POINT('Ctrl Pts',(7.25585889005151,9.13117743140191,9.36562963471343));
#730=CARTESIAN_POINT('Ctrl Pts',(6.77198135304467,9.25661706333897,9.65053638444038));
#731=CARTESIAN_POINT('Ctrl Pts',(6.27618615769237,9.36152064803547,9.94434931415385));
#732=CARTESIAN_POINT('Ctrl Pts',(5.77178906923169,9.44027322733545,10.2435470815998));
#733=CARTESIAN_POINT('Ctrl Pts',(5.28155407222638,9.48712915759338,10.5339947949238));
#734=CARTESIAN_POINT('Ctrl Pts',(4.95966021550516,9.49866945799796,10.7245112419706));
#735=CARTESIAN_POINT('Ctrl Pts',(4.78935828238468,9.49992726217483,10.8252889187482));
#736=CARTESIAN_POINT('Ctrl Pts',(4.76967930595466,9.5,10.8369343671209));
#737=CARTESIAN_POINT('Ctrl Pts',(4.75,9.5,10.8485796544753));
#738=CARTESIAN_POINT('Ctrl Pts',(11.419622000048,8.99793584450206,6.90374985371139));
#739=CARTESIAN_POINT('Ctrl Pts',(11.3260360812963,9.00239713516926,6.9038543928885));
#740=CARTESIAN_POINT('Ctrl Pts',(10.9101542585754,9.02287962038525,6.91733705861616));
#741=CARTESIAN_POINT('Ctrl Pts',(10.2964143236456,9.05791829479565,7.0211524595629));
#742=CARTESIAN_POINT('Ctrl Pts',(9.60400710467872,9.10751278650992,7.24810483872675));
#743=CARTESIAN_POINT('Ctrl Pts',(9.07410856359191,9.15093231438863,7.47917505154339));
#744=CARTESIAN_POINT('Ctrl Pts',(8.57686049448077,9.19666472616389,7.74471797339732));
#745=CARTESIAN_POINT('Ctrl Pts',(8.10678192355784,9.24376193869353,8.03646096723832));
#746=CARTESIAN_POINT('Ctrl Pts',(7.65637432387923,9.29138713393752,8.34993992366876));
#747=CARTESIAN_POINT('Ctrl Pts',(7.22044464259253,9.33819194315099,8.68104836266989));
#748=CARTESIAN_POINT('Ctrl Pts',(6.79447703881744,9.38254379011447,9.02653500397758));
#749=CARTESIAN_POINT('Ctrl Pts',(6.37574599159055,9.4224631292729,9.38280476960131));
#750=CARTESIAN_POINT('Ctrl Pts',(5.96281016822474,9.45589282271801,9.74609845119878));
#751=CARTESIAN_POINT('Ctrl Pts',(5.55510548988301,9.48099937285713,10.112775089628));
#752=CARTESIAN_POINT('Ctrl Pts',(5.16683613944896,9.49593635797613,10.4665516496034));
#753=CARTESIAN_POINT('Ctrl Pts',(4.91436605724109,9.49957389465773,10.6979318610796));
#754=CARTESIAN_POINT('Ctrl Pts',(4.78084842340225,9.49997682908005,10.8202967055764));
#755=CARTESIAN_POINT('Ctrl Pts',(4.76542762557358,9.50000000000001,10.8344401732979));
#756=CARTESIAN_POINT('Ctrl Pts',(4.75,9.50000000000001,10.8485796544753));
#757=CARTESIAN_POINT('Ctrl Pts',(11.3607564298724,9.45404365100518,5.97528547920439));
#758=CARTESIAN_POINT('Ctrl Pts',(11.2459318498274,9.45431148171915,5.98050652594501));
#759=CARTESIAN_POINT('Ctrl Pts',(10.7383746827052,9.45561742007613,6.0205070166391));
#760=CARTESIAN_POINT('Ctrl Pts',(10.0087757816458,9.45837742990693,6.18680849670345));
#761=CARTESIAN_POINT('Ctrl Pts',(9.22020742004314,9.46204852849722,6.50883658740019));
#762=CARTESIAN_POINT('Ctrl Pts',(8.6383424879239,9.46555080176991,6.82212265970618));
#763=CARTESIAN_POINT('Ctrl Pts',(8.11346472466876,9.46940443468066,7.17036416791537));
#764=CARTESIAN_POINT('Ctrl Pts',(7.6375295848243,9.47360367655289,7.54246665581293));
#765=CARTESIAN_POINT('Ctrl Pts',(7.20072612950483,9.47805555962832,7.93270938981746));
#766=CARTESIAN_POINT('Ctrl Pts',(6.79584191767127,9.48263643931897,8.33608919643394));
#767=CARTESIAN_POINT('Ctrl Pts',(6.41639098873172,9.48715471561895,8.74905456185618));
#768=CARTESIAN_POINT('Ctrl Pts',(6.05745556455102,9.49136927274816,9.16800391143627));
#769=CARTESIAN_POINT('Ctrl Pts',(5.71505996133589,9.49500383581284,9.58952955854755));
#770=CARTESIAN_POINT('Ctrl Pts',(5.3857516598992,9.49780645009248,10.0106553260575));
#771=CARTESIAN_POINT('Ctrl Pts',(5.07775487596029,9.4995068093475,10.4142184660113));
#772=CARTESIAN_POINT('Ctrl Pts',(4.87918152824915,9.49995246715891,10.6772849805698));
#773=CARTESIAN_POINT('Ctrl Pts',(4.77425265691445,9.49999733574623,10.8164273745563));
#774=CARTESIAN_POINT('Ctrl Pts',(4.76212352390663,9.5,10.8325018643872));
#775=CARTESIAN_POINT('Ctrl Pts',(4.75,9.5,10.8485796544753));
#776=CARTESIAN_POINT('Ctrl Pts',(11.333756456036,9.50000000000001,5.54942510369262));
#777=CARTESIAN_POINT('Ctrl Pts',(11.2093190500529,9.50004603251228,5.55678935419781));
#778=CARTESIAN_POINT('Ctrl Pts',(10.66010833777,9.50016435356358,5.60821369916789));
#779=CARTESIAN_POINT('Ctrl Pts',(9.87688259357092,9.49973996947349,5.8033288970633));
#780=CARTESIAN_POINT('Ctrl Pts',(9.04380680531441,9.4999332110404,6.16778499583445));
#781=CARTESIAN_POINT('Ctrl Pts',(8.43751135256234,9.49995446748308,6.51831539572623));
#782=CARTESIAN_POINT('Ctrl Pts',(7.89939022542528,9.50003294362267,6.90410109836847));
#783=CARTESIAN_POINT('Ctrl Pts',(7.42024321293386,9.50007900669788,7.31293813578348));
#784=CARTESIAN_POINT('Ctrl Pts',(6.98929932946692,9.50012403877814,7.73842897031204));
#785=CARTESIAN_POINT('Ctrl Pts',(6.59845914066164,9.50014842834284,8.17516664122453));
#786=CARTESIAN_POINT('Ctrl Pts',(6.24036237472658,9.50015888871472,8.61940854565284));
#787=CARTESIAN_POINT('Ctrl Pts',(5.90908982401775,9.50015031422374,9.06752703453445));
#788=CARTESIAN_POINT('Ctrl Pts',(5.59947218296753,9.50012933765707,9.51622948659152));
#789=CARTESIAN_POINT('Ctrl Pts',(5.30670984589024,9.50008902029062,9.96284177520098));
#790=CARTESIAN_POINT('Ctrl Pts',(5.03616442354461,9.5000500910053,10.3897127595828));
#791=CARTESIAN_POINT('Ctrl Pts',(4.86279634989361,9.49999939127484,10.6676698811485));
#792=CARTESIAN_POINT('Ctrl Pts',(4.77116448512174,9.50000007952464,10.8146157323787));
#793=CARTESIAN_POINT('Ctrl Pts',(4.760586733823,9.5,10.831600326174));
#794=CARTESIAN_POINT('Ctrl Pts',(4.75,9.5,10.8485796544753));
#795=CARTESIAN_POINT('Ctrl Pts',(11.3256545900983,9.5,5.42163743650823));
#796=CARTESIAN_POINT('Ctrl Pts',(11.1982322791982,9.5,5.42971613849204));
#797=CARTESIAN_POINT('Ctrl Pts',(10.6361804376705,9.5,5.4847538202143));
#798=CARTESIAN_POINT('Ctrl Pts',(9.8369610284154,9.5,5.68783208509134));
#799=CARTESIAN_POINT('Ctrl Pts',(8.99037681425454,9.5,6.06540304551016));
#800=CARTESIAN_POINT('Ctrl Pts',(8.37678789117817,9.5,6.42717131120509));
#801=CARTESIAN_POINT('Ctrl Pts',(7.83473860451082,9.5,6.82435910800308));
#802=CARTESIAN_POINT('Ctrl Pts',(7.35471127985674,9.49999999999999,7.24427911915825));
#803=CARTESIAN_POINT('Ctrl Pts',(6.92560811935341,9.5,7.68039113793441));
#804=CARTESIAN_POINT('Ctrl Pts',(6.53905888737563,9.49999999999999,8.12714194551704));
#805=CARTESIAN_POINT('Ctrl Pts',(6.18743131389196,9.5,8.58075118896481));
#806=CARTESIAN_POINT('Ctrl Pts',(5.86450106715904,9.5,9.03758082079371));
#807=CARTESIAN_POINT('Ctrl Pts',(5.56474759398896,9.5,9.49438900564516));
#808=CARTESIAN_POINT('Ctrl Pts',(5.28295761854156,9.5,9.94858160609359));
#809=CARTESIAN_POINT('Ctrl Pts',(5.02366797702794,9.5,10.3824010860319));
#810=CARTESIAN_POINT('Ctrl Pts',(4.8578443148879,9.5,10.6647639419585));
#811=CARTESIAN_POINT('Ctrl Pts',(4.77024200698694,9.5,10.8140745716516));
#812=CARTESIAN_POINT('Ctrl Pts',(4.7601210236394,9.5,10.8313271232614));
#813=CARTESIAN_POINT('Ctrl Pts',(4.75,9.5,10.8485796544753));
#814=CARTESIAN_POINT('',(4.75,9.5,10.8485796544753));
#815=CARTESIAN_POINT('Ctrl Pts',(11.3256545900983,9.5,5.42163743650823));
#816=CARTESIAN_POINT('Ctrl Pts',(11.1982322791982,9.5,5.42971613849204));
#817=CARTESIAN_POINT('Ctrl Pts',(10.6361804376705,9.5,5.4847538202143));
#818=CARTESIAN_POINT('Ctrl Pts',(9.8369610284154,9.5,5.68783208509134));
#819=CARTESIAN_POINT('Ctrl Pts',(8.99037681425454,9.5,6.06540304551016));
#820=CARTESIAN_POINT('Ctrl Pts',(8.37678789117817,9.5,6.42717131120509));
#821=CARTESIAN_POINT('Ctrl Pts',(7.83473860451082,9.5,6.82435910800308));
#822=CARTESIAN_POINT('Ctrl Pts',(7.35471127985674,9.49999999999999,7.24427911915825));
#823=CARTESIAN_POINT('Ctrl Pts',(6.92560811935341,9.5,7.68039113793441));
#824=CARTESIAN_POINT('Ctrl Pts',(6.53905888737563,9.49999999999999,8.12714194551704));
#825=CARTESIAN_POINT('Ctrl Pts',(6.18743131389196,9.5,8.58075118896481));
#826=CARTESIAN_POINT('Ctrl Pts',(5.86450106715904,9.5,9.03758082079371));
#827=CARTESIAN_POINT('Ctrl Pts',(5.56474759398896,9.5,9.49438900564516));
#828=CARTESIAN_POINT('Ctrl Pts',(5.28295761854156,9.5,9.94858160609359));
#829=CARTESIAN_POINT('Ctrl Pts',(5.02366797702794,9.5,10.3824010860319));
#830=CARTESIAN_POINT('Ctrl Pts',(4.8578443148879,9.5,10.6647639419585));
#831=CARTESIAN_POINT('Ctrl Pts',(4.77024200698694,9.5,10.8140745716516));
#832=CARTESIAN_POINT('Ctrl Pts',(4.7601210236394,9.5,10.8313271232614));
#833=CARTESIAN_POINT('Ctrl Pts',(4.75,9.5,10.8485796544753));
#834=CARTESIAN_POINT('Ctrl Pts',(4.75,9.5,10.8485796544753));
#835=CARTESIAN_POINT('Ctrl Pts',(4.77289784851431,9.5,10.8388224838775));
#836=CARTESIAN_POINT('Ctrl Pts',(4.7957956145295,9.49986832909191,10.8290653070351));
#837=CARTESIAN_POINT('Ctrl Pts',(4.99393580842735,9.49758993035937,10.7446247426552));
#838=CARTESIAN_POINT('Ctrl Pts',(5.36824540894572,9.47670316111253,10.5849684045959));
#839=CARTESIAN_POINT('Ctrl Pts',(5.93238406215528,9.3922075457754,10.3405113209835));
#840=CARTESIAN_POINT('Ctrl Pts',(6.50041392881827,9.25168335411193,10.0863342421307));
#841=CARTESIAN_POINT('Ctrl Pts',(7.04175611565218,9.06738798855246,9.83311084853882));
#842=CARTESIAN_POINT('Ctrl Pts',(7.55046664742521,8.8513769092532,9.5826803263486));
#843=CARTESIAN_POINT('Ctrl Pts',(8.02539436440098,8.6165837589555,9.3369115822156));
#844=CARTESIAN_POINT('Ctrl Pts',(8.47004497350139,8.37473438753259,9.09759868898557));
#845=CARTESIAN_POINT('Ctrl Pts',(8.89192952749645,8.13496899491644,8.86639756164716));
#846=CARTESIAN_POINT('Ctrl Pts',(9.30029770304363,7.90410615391093,8.64576371151029));
#847=CARTESIAN_POINT('Ctrl Pts',(9.70665471551906,7.68606751680511,8.43858960552178));
#848=CARTESIAN_POINT('Ctrl Pts',(10.1207096230795,7.4843897134126,8.25090505309364));
#849=CARTESIAN_POINT('Ctrl Pts',(10.646388092359,7.26072346511355,8.05562817509392));
#850=CARTESIAN_POINT('Ctrl Pts',(11.1036277478663,7.10619062949911,7.95043524611692));
#851=CARTESIAN_POINT('Ctrl Pts',(11.4139697754096,7.01886439642946,7.92105773475827));
#852=CARTESIAN_POINT('Ctrl Pts',(11.4838394830717,7.00000000000001,7.91662792539513));
#853=CARTESIAN_POINT('Ctrl Pts',(11.3256545900982,0.,5.42163743650766));
#854=CARTESIAN_POINT('Ctrl Pts',(10.8831786507436,0.,5.44969085371381));
#855=CARTESIAN_POINT('Ctrl Pts',(10.4476282395168,0.,5.53031801336686));
#856=CARTESIAN_POINT('Ctrl Pts',(9.49572835925877,0.,5.82065227791363));
#857=CARTESIAN_POINT('Ctrl Pts',(8.72553146087832,0.,6.17371641391666));
#858=CARTESIAN_POINT('Ctrl Pts',(7.48940512193124,0.,7.07012634901554));
#859=CARTESIAN_POINT('Ctrl Pts',(6.77933637133785,0.,7.81383557669395));
#860=CARTESIAN_POINT('Ctrl Pts',(6.32139905438112,0.,8.41000981617882));
#861=CARTESIAN_POINT('Ctrl Pts',(11.3418583219737,-4.09982710288037E-14,
5.67721277087646));
#862=CARTESIAN_POINT('Ctrl Pts',(10.9196290634571,2.06325307994782E-12,
5.70061755317245));
#863=CARTESIAN_POINT('Ctrl Pts',(10.5026666781736,-1.83279523288454E-12,
5.77364852767136));
#864=CARTESIAN_POINT('Ctrl Pts',(9.58664328785574,-2.48772048209956E-12,
6.04162651294857));
#865=CARTESIAN_POINT('Ctrl Pts',(8.8410162964081,1.1327917897749E-12,6.37049833527319));
#866=CARTESIAN_POINT('Ctrl Pts',(7.62371776312661,-1.09848102308039E-13,
7.21551743359237));
#867=CARTESIAN_POINT('Ctrl Pts',(6.90712312079876,-7.41347677179701E-15,
7.92304686948964));
#868=CARTESIAN_POINT('Ctrl Pts',(6.43173615976244,1.14156505768354E-12,
8.4947626864838));
#869=CARTESIAN_POINT('Ctrl Pts',(11.3833271785582,0.138776739416556,6.33128536161616));
#870=CARTESIAN_POINT('Ctrl Pts',(11.0129698681433,0.135271457718814,6.34199485904561));
#871=CARTESIAN_POINT('Ctrl Pts',(10.6430177865085,0.131256531076665,6.39470360977437));
#872=CARTESIAN_POINT('Ctrl Pts',(9.81828245865236,0.120053875539755,6.60356190790958));
#873=CARTESIAN_POINT('Ctrl Pts',(9.13400790407824,0.10853716505153,6.86900827493549));
#874=CARTESIAN_POINT('Ctrl Pts',(7.9619019431255,0.082024444588647,7.58118758666414));
#875=CARTESIAN_POINT('Ctrl Pts',(7.22730922226826,0.0574357954131731,8.19611275904055));
#876=CARTESIAN_POINT('Ctrl Pts',(6.70712900804418,0.04139464355309,8.70629927041591));
#877=CARTESIAN_POINT('Ctrl Pts',(11.4520679727631,1.01489608790295,7.41550790977137));
#878=CARTESIAN_POINT('Ctrl Pts',(11.1678890276567,0.982764917183707,7.40996640410133));
#879=CARTESIAN_POINT('Ctrl Pts',(10.877687855048,0.946179784329363,7.43410955246877));
#880=CARTESIAN_POINT('Ctrl Pts',(10.2098272753761,0.850807277478916,7.55601378336376));
#881=CARTESIAN_POINT('Ctrl Pts',(9.63558361901751,0.756284923800567,7.72507790271259));
#882=CARTESIAN_POINT('Ctrl Pts',(8.55559690301377,0.547822561810447,8.22542021656442));
#883=CARTESIAN_POINT('Ctrl Pts',(7.80062040146339,0.379159605531469,8.68607400113188));
#884=CARTESIAN_POINT('Ctrl Pts',(7.20536311107729,0.265723540151887,9.08900615918051));
#885=CARTESIAN_POINT('Ctrl Pts',(11.4809286010531,1.94523874968756,7.87071568424904));
#886=CARTESIAN_POINT('Ctrl Pts',(11.2338112324766,1.88817118963513,7.87286731151581));
#887=CARTESIAN_POINT('Ctrl Pts',(10.9817150078382,1.82267760826747,7.90068093127675));
#888=CARTESIAN_POINT('Ctrl Pts',(10.3983295362142,1.65015514223091,8.02016854981898));
#889=CARTESIAN_POINT('Ctrl Pts',(9.8957266190293,1.47740035200935,8.17661180362131));
#890=CARTESIAN_POINT('Ctrl Pts',(8.9100752873055,1.08526314915643,8.61713832547521));
#891=CARTESIAN_POINT('Ctrl Pts',(8.1797616595623,0.760097141533086,9.01211121820259));
#892=CARTESIAN_POINT('Ctrl Pts',(7.55113870006931,0.534237769058418,9.35460560142672));
#893=CARTESIAN_POINT('Ctrl Pts',(11.4838394830723,2.37195575719242,7.91662792539503));
#894=CARTESIAN_POINT('Ctrl Pts',(11.2410384228661,2.30812758131551,7.92867315383715));
#895=CARTESIAN_POINT('Ctrl Pts',(10.9956459060855,2.2343859885075,7.96693744080022));
#896=CARTESIAN_POINT('Ctrl Pts',(10.4331219023647,2.03753021151156,8.10892510037555));
#897=CARTESIAN_POINT('Ctrl Pts',(9.95495082834326,1.83829234195958,8.28365402162933));
#898=CARTESIAN_POINT('Ctrl Pts',(9.01940984690796,1.37288143802487,8.74196286469904));
#899=CARTESIAN_POINT('Ctrl Pts',(8.319692510827,0.973960829932227,9.13350623974154));
#900=CARTESIAN_POINT('Ctrl Pts',(7.68892673662289,0.688565529221244,9.46044426332718));
#901=CARTESIAN_POINT('Ctrl Pts',(11.4838394830723,2.49999999999975,7.91662792539505));
#902=CARTESIAN_POINT('Ctrl Pts',(11.2412158458786,2.43449309252397,7.93201050671279));
#903=CARTESIAN_POINT('Ctrl Pts',(10.9969562645698,2.35865399225369,7.97400322245422));
#904=CARTESIAN_POINT('Ctrl Pts',(10.4388384522146,2.15546535405922,8.1243798800257));
#905=CARTESIAN_POINT('Ctrl Pts',(9.96703275920081,1.94922581444196,8.30640927402232));
#906=CARTESIAN_POINT('Ctrl Pts',(9.04680468300793,1.46281289340135,8.77377179894146));
#907=CARTESIAN_POINT('Ctrl Pts',(8.35764533642189,1.04228277227056,9.16681027021308));
#908=CARTESIAN_POINT('Ctrl Pts',(7.72781144852232,0.737913176864625,9.49031264652471));
#909=CARTESIAN_POINT('',(7.72781144852233,0.737913176864629,9.49031264652472));
#910=CARTESIAN_POINT('',(6.65174518517102,0.,8.00000000049576));
#911=CARTESIAN_POINT('Ctrl Pts',(7.72781144852235,0.737913176864637,9.49031264652471));
#912=CARTESIAN_POINT('Ctrl Pts',(7.76040033834956,0.732547406905528,9.43913406071487));
#913=CARTESIAN_POINT('Ctrl Pts',(7.7873764227169,0.722371011251843,9.38593701242641));
#914=CARTESIAN_POINT('Ctrl Pts',(7.83116629168805,0.690192086821195,9.26803692533905));
#915=CARTESIAN_POINT('Ctrl Pts',(7.84530506837106,0.66744368293121,9.20503159813777));
#916=CARTESIAN_POINT('Ctrl Pts',(7.85974971245767,0.596989667589614,9.03989243764619));
#917=CARTESIAN_POINT('Ctrl Pts',(7.84587173616388,0.544347522898254,8.94121205030364));
#918=CARTESIAN_POINT('Ctrl Pts',(7.77956778184938,0.425220636068223,8.7334585146999));
#919=CARTESIAN_POINT('Ctrl Pts',(7.71862127123731,0.357553187062344,8.62554662151867));
#920=CARTESIAN_POINT('Ctrl Pts',(7.54764713399127,0.220695499767682,8.40489260152734));
#921=CARTESIAN_POINT('Ctrl Pts',(7.42522834012471,0.152461420540086,8.29290676246039));
#922=CARTESIAN_POINT('Ctrl Pts',(7.18824640346673,0.0667772869556657,8.14011417097203));
#923=CARTESIAN_POINT('Ctrl Pts',(7.08063950350032,0.0395373255629429,8.08703687612419));
#924=CARTESIAN_POINT('Ctrl Pts',(6.89527839510805,0.0117176738306079,8.02823835597154));
#925=CARTESIAN_POINT('Ctrl Pts',(6.82207444816362,0.00495068184908565,8.01233234153674));
#926=CARTESIAN_POINT('Ctrl Pts',(6.71560138846227,0.000618292698438184,
8.00164808111558));
#927=CARTESIAN_POINT('Ctrl Pts',(6.683706649305,5.43949586509508E-16,8.));
#928=CARTESIAN_POINT('Ctrl Pts',(6.65174518601055,5.55111512312578E-16,
8.));
#929=CARTESIAN_POINT('Ctrl Pts',(6.65192514478226,0.,8.00015256735046));
#930=CARTESIAN_POINT('Ctrl Pts',(7.00611201073128,0.,7.58236676225319));
#931=CARTESIAN_POINT('Ctrl Pts',(7.60742218115337,0.,6.98454313550034));
#932=CARTESIAN_POINT('Ctrl Pts',(8.72553146087832,0.,6.17371641391666));
#933=CARTESIAN_POINT('Ctrl Pts',(9.49572835925877,0.,5.82065227791363));
#934=CARTESIAN_POINT('Ctrl Pts',(10.4476282395168,0.,5.53031801336686));
#935=CARTESIAN_POINT('Ctrl Pts',(10.8831786507436,0.,5.44969085371381));
#936=CARTESIAN_POINT('Ctrl Pts',(11.3256545900982,0.,5.42163743650766));
#937=CARTESIAN_POINT('Ctrl Pts',(11.4838394830723,2.49999999999975,7.91662792539505));
#938=CARTESIAN_POINT('Ctrl Pts',(11.2412158458786,2.43449309252397,7.93201050671279));
#939=CARTESIAN_POINT('Ctrl Pts',(10.9969562645698,2.35865399225369,7.97400322245422));
#940=CARTESIAN_POINT('Ctrl Pts',(10.4388384522146,2.15546535405922,8.1243798800257));
#941=CARTESIAN_POINT('Ctrl Pts',(9.96703275920081,1.94922581444196,8.30640927402232));
#942=CARTESIAN_POINT('Ctrl Pts',(9.04680468300793,1.46281289340135,8.77377179894146));
#943=CARTESIAN_POINT('Ctrl Pts',(8.35764533642189,1.04228277227056,9.16681027021308));
#944=CARTESIAN_POINT('Ctrl Pts',(7.72781144852232,0.737913176864625,9.49031264652471));
#945=CARTESIAN_POINT('Origin',(35.2499999480749,9.5,0.));
#946=CARTESIAN_POINT('',(35.2499999480749,9.5,0.));
#947=CARTESIAN_POINT('',(35.2499999480749,9.5,0.));
#948=CARTESIAN_POINT('',(4.75,9.5,0.));
#949=CARTESIAN_POINT('',(40.,9.5,0.));
#950=CARTESIAN_POINT('',(4.75,9.5,0.));
#951=CARTESIAN_POINT('Ctrl Pts',(7.18926521254741,0.674158341783128,10.6125320867659));
#952=CARTESIAN_POINT('Ctrl Pts',(8.19941388614533,1.27870109040558,10.5147800521773));
#953=CARTESIAN_POINT('Ctrl Pts',(9.34926630133889,2.77072288562458,10.4035088937829));
#954=CARTESIAN_POINT('Ctrl Pts',(9.6590635704619,5.75522451686382,10.3735298281678));
#955=CARTESIAN_POINT('Ctrl Pts',(8.27927966437368,8.58279382018328,10.5070514449733));
#956=CARTESIAN_POINT('Ctrl Pts',(5.92723076653799,9.5,10.7346590944458));
#957=CARTESIAN_POINT('Ctrl Pts',(4.75,9.5,10.8485796544753));
#958=CARTESIAN_POINT('Ctrl Pts',(7.15512054988834,0.653723816891681,9.88109104155681));
#959=CARTESIAN_POINT('Ctrl Pts',(8.17427196385687,1.25182069515736,9.78955006861173));
#960=CARTESIAN_POINT('Ctrl Pts',(9.34603793654014,2.75209792490705,9.68480901769467));
#961=CARTESIAN_POINT('Ctrl Pts',(9.66109716280595,5.76490032141841,9.65672377961969));
#962=CARTESIAN_POINT('Ctrl Pts',(8.25444972615708,8.61486929572547,9.78221140695038));
#963=CARTESIAN_POINT('Ctrl Pts',(5.87838054711345,9.5120927698607,9.9957778951706));
#964=CARTESIAN_POINT('Ctrl Pts',(4.7026711906977,9.5,10.1020802458407));
#965=CARTESIAN_POINT('Ctrl Pts',(7.40421948442888,0.103186153636032,8.61327453260014));
#966=CARTESIAN_POINT('Ctrl Pts',(8.56513081069758,0.779591066411037,8.53165850741677));
#967=CARTESIAN_POINT('Ctrl Pts',(9.89945016136455,2.47740875272205,8.43818470116192));
#968=CARTESIAN_POINT('Ctrl Pts',(10.2612341807455,5.90490782043822,8.41283180267308));
#969=CARTESIAN_POINT('Ctrl Pts',(8.6530822501402,9.14126825872436,8.52545231054138));
#970=CARTESIAN_POINT('Ctrl Pts',(5.95523044422018,10.1461719583854,8.71507362079694));
#971=CARTESIAN_POINT('Ctrl Pts',(4.62070449929174,10.1275079261258,8.80925062337016));
#972=CARTESIAN_POINT('Ctrl Pts',(8.03375618648248,-0.999354579166056,8.13536665784772));
#973=CARTESIAN_POINT('Ctrl Pts',(9.46173543964675,-0.150296965442895,8.04490989509731));
#974=CARTESIAN_POINT('Ctrl Pts',(11.0907103876041,1.95312041513502,7.9415558275447));
#975=CARTESIAN_POINT('Ctrl Pts',(11.5304776477047,6.17070096179784,7.91375677951269));
#976=CARTESIAN_POINT('Ctrl Pts',(9.57329605099413,10.1630157880162,8.03774180100778));
#977=CARTESIAN_POINT('Ctrl Pts',(6.25053162969707,11.4445383543853,8.24852498427468));
#978=CARTESIAN_POINT('Ctrl Pts',(4.59181510702658,11.439001311859,8.35358916558862));
#979=CARTESIAN_POINT('Ctrl Pts',(8.31490411565157,-1.47102147833102,8.11754159787919));
#980=CARTESIAN_POINT('Ctrl Pts',(9.85670998587998,-0.548298335696749,8.0197895632906));
#981=CARTESIAN_POINT('Ctrl Pts',(11.6117478827544,1.72899808858488,7.90851840489622));
#982=CARTESIAN_POINT('Ctrl Pts',(12.0845963461526,6.28429005205531,7.87853933928116));
#983=CARTESIAN_POINT('Ctrl Pts',(9.97861038422851,10.6000537255429,8.01206095608665));
#984=CARTESIAN_POINT('Ctrl Pts',(6.38864101384773,12.,8.23966860555907));
#985=CARTESIAN_POINT('Ctrl Pts',(4.59181510702658,12.,8.35358916558862));
#986=CARTESIAN_POINT('',(7.18926521254741,0.674158341783128,10.6125320867659));
#987=CARTESIAN_POINT('Origin',(4.75,4.75,10.8485796544753));
#988=CARTESIAN_POINT('Ctrl Pts',(7.18926521254741,0.674158341783129,10.6125320867659));
#989=CARTESIAN_POINT('Ctrl Pts',(7.19035749256169,0.674812037599756,10.6094751720905));
#990=CARTESIAN_POINT('Ctrl Pts',(7.19145221938037,0.675461731314758,10.6064182773068));
#991=CARTESIAN_POINT('Ctrl Pts',(7.31493439749454,0.748131557053652,10.26238351182));
#992=CARTESIAN_POINT('Ctrl Pts',(7.46706624752574,0.769950034227854,9.92386114750264));
#993=CARTESIAN_POINT('Ctrl Pts',(7.67929401569345,0.745342516011175,9.5677883437639));
#994=CARTESIAN_POINT('Ctrl Pts',(7.70329542427902,0.741949747214626,9.52881335818271));
#995=CARTESIAN_POINT('Ctrl Pts',(7.72781144852233,0.737913176864634,9.49031264652472));
#996=CARTESIAN_POINT('Origin',(4.59181510702658,4.75,8.35358916558862));
#997=CARTESIAN_POINT('Origin',(35.25,4.75,0.));
#998=CARTESIAN_POINT('',(35.250000044758,-5.55111512312578E-16,0.));
#999=CARTESIAN_POINT('',(35.250000044758,-5.55111512312578E-16,0.));
#1000=CARTESIAN_POINT('Origin',(35.25,4.75,0.));
#1001=CARTESIAN_POINT('Origin',(10.1688432829425,9.5,8.));
#1002=CARTESIAN_POINT('Ctrl Pts',(8.98661852705684,0.,8.));
#1003=CARTESIAN_POINT('Ctrl Pts',(7.64653753130558,0.,8.));
#1004=CARTESIAN_POINT('Ctrl Pts',(6.19357851654701,0.,7.99999999999986));
#1005=CARTESIAN_POINT('Ctrl Pts',(4.75621511525905,0.,8.));
#1006=CARTESIAN_POINT('Ctrl Pts',(4.75310769952939,0.,8.));
#1007=CARTESIAN_POINT('Ctrl Pts',(4.75,0.,8.));
#1008=CARTESIAN_POINT('Ctrl Pts',(8.28378400966434,0.654332574816752,8.58334276287115));
#1009=CARTESIAN_POINT('Ctrl Pts',(7.24648520997343,0.290149913668782,8.63419283974485));
#1010=CARTESIAN_POINT('Ctrl Pts',(5.98867345799657,-0.00461235350819903,
8.31359460744904));
#1011=CARTESIAN_POINT('Ctrl Pts',(4.75533737615878,9.80092128226547E-6,
8.00134912786674));
#1012=CARTESIAN_POINT('Ctrl Pts',(4.75266822686876,0.,8.00067472191327));
#1013=CARTESIAN_POINT('Ctrl Pts',(4.75,0.,8.));
#1014=CARTESIAN_POINT('Ctrl Pts',(7.59058967996894,0.91433862708744,9.59093120643064));
#1015=CARTESIAN_POINT('Ctrl Pts',(6.8370286649819,0.347776721553523,9.27236129848281));
#1016=CARTESIAN_POINT('Ctrl Pts',(5.78465600894818,-0.00272902614436936,
8.62563408121317));
#1017=CARTESIAN_POINT('Ctrl Pts',(4.75445828273781,7.75030253490654E-6,
8.00270060510684));
#1018=CARTESIAN_POINT('Ctrl Pts',(4.75222875420814,0.,8.00134944382654));
#1019=CARTESIAN_POINT('Ctrl Pts',(4.75,0.,8.));
#1020=CARTESIAN_POINT('Ctrl Pts',(7.18926521254788,0.67415834178341,10.6125320867647));
#1021=CARTESIAN_POINT('Ctrl Pts',(6.41770342711534,0.212402468921458,9.89754526125985));
#1022=CARTESIAN_POINT('Ctrl Pts',(5.58115126709137,0.00158515710362303,
8.93886078036135));
#1023=CARTESIAN_POINT('Ctrl Pts',(4.75357839969455,2.66382995365564E-8,
8.00405027046614));
#1024=CARTESIAN_POINT('Ctrl Pts',(4.75178928154751,0.,8.00202416573981));
#1025=CARTESIAN_POINT('Ctrl Pts',(4.75,0.,8.));
#1026=CARTESIAN_POINT('',(5.03775247153325,0.0087433332875215,8.32531029139074));
#1027=CARTESIAN_POINT('Ctrl Pts',(7.18926521254788,0.67415834178341,10.6125320867647));
#1028=CARTESIAN_POINT('Ctrl Pts',(6.5055554658842,0.264979197850138,9.97895552742312));
#1029=CARTESIAN_POINT('Ctrl Pts',(5.77081271167955,0.0528469175269154,9.15401794941371));
#1030=CARTESIAN_POINT('Ctrl Pts',(5.03775247153325,0.0087433332875215,8.32531029139074));
#1031=CARTESIAN_POINT('',(4.75,0.,8.));
#1032=CARTESIAN_POINT('Ctrl Pts',(5.03775247153326,0.00874333328752214,
8.32531029139075));
#1033=CARTESIAN_POINT('Ctrl Pts',(4.94355923097833,0.00307632354932261,
8.21882701006275));
#1034=CARTESIAN_POINT('Ctrl Pts',(4.84939376956674,0.000183551096161963,
8.11228148283994));
#1035=CARTESIAN_POINT('Ctrl Pts',(4.75357839969455,2.66382995365564E-8,
8.00405027046614));
#1036=CARTESIAN_POINT('Ctrl Pts',(4.75178928154751,0.,8.00202416573981));
#1037=CARTESIAN_POINT('Ctrl Pts',(4.75,0.,8.));
#1038=CARTESIAN_POINT('',(0.,0.,8.));
#1039=CARTESIAN_POINT('Origin',(4.75,0.,0.));
#1040=CARTESIAN_POINT('',(4.75,0.,0.));
#1041=CARTESIAN_POINT('',(4.75,0.,0.));
#1042=CARTESIAN_POINT('',(0.,0.,0.));
#1043=CARTESIAN_POINT('Origin',(4.75,4.75,0.));
#1044=CARTESIAN_POINT('',(0.,4.75,25.));
#1045=CARTESIAN_POINT('Origin',(4.75,4.75,25.));
#1046=CARTESIAN_POINT('',(0.,4.75,0.));
#1047=CARTESIAN_POINT('',(0.,4.75,0.));
#1048=CARTESIAN_POINT('Origin',(4.75,4.75,0.));
#1049=CARTESIAN_POINT('Origin',(4.75,4.75,0.));
#1050=CARTESIAN_POINT('Origin',(4.75,4.75,34.5));
#1051=CARTESIAN_POINT('',(4.75,6.81,32.));
#1052=CARTESIAN_POINT('',(4.75,6.81,34.5));
#1053=CARTESIAN_POINT('',(4.75,6.81,34.5));
#1054=CARTESIAN_POINT('',(4.75,2.69,32.));
#1055=CARTESIAN_POINT('Origin',(4.75,4.75,32.));
#1056=CARTESIAN_POINT('',(4.75,2.69,34.5));
#1057=CARTESIAN_POINT('',(4.75,2.69,34.5));
#1058=CARTESIAN_POINT('',(6.81,4.75,34.5));
#1059=CARTESIAN_POINT('Origin',(4.75,4.75,34.5));
#1060=CARTESIAN_POINT('',(6.81,4.75,0.));
#1061=CARTESIAN_POINT('',(6.81,4.75,34.5));
#1062=CARTESIAN_POINT('Origin',(4.75,4.75,0.));
#1063=CARTESIAN_POINT('Origin',(4.75,4.75,34.5));
#1064=CARTESIAN_POINT('Origin',(6.75,4.75,34.5));
#1065=CARTESIAN_POINT('',(4.75,0.75,34.5));
#1066=CARTESIAN_POINT('',(4.75,11.3083370604217,34.5));
#1067=CARTESIAN_POINT('',(8.75,4.75,34.5));
#1068=CARTESIAN_POINT('Origin',(4.75,4.75,34.5));
#1069=CARTESIAN_POINT('',(4.75,8.75,34.5));
#1070=CARTESIAN_POINT('Origin',(4.75,4.75,34.5));
#1071=CARTESIAN_POINT('',(4.75,11.3083370604217,34.5));
#1072=CARTESIAN_POINT('Origin',(4.75,8.75,32.));
#1073=CARTESIAN_POINT('',(4.75,0.75,32.));
#1074=CARTESIAN_POINT('',(4.75,6.75,32.));
#1075=CARTESIAN_POINT('',(4.75,0.75,32.));
#1076=CARTESIAN_POINT('Origin',(4.75,8.75,32.));
#1077=CARTESIAN_POINT('',(4.75,8.75,32.));
#1078=CARTESIAN_POINT('',(4.75,8.75,32.));
#1079=CARTESIAN_POINT('',(4.75,6.75,32.));
#1080=CARTESIAN_POINT('Origin',(4.75,4.75,25.));
#1081=CARTESIAN_POINT('',(8.75,4.75,25.));
#1082=CARTESIAN_POINT('',(8.75,4.75,25.));
#1083=CARTESIAN_POINT('Origin',(4.75,4.75,25.));
#1084=CARTESIAN_POINT('Origin',(4.75,4.75,32.));
#1085=CARTESIAN_POINT('Origin',(4.75,4.75,32.));
#1086=CARTESIAN_POINT('Origin',(4.75,4.75,25.));
#1087=CARTESIAN_POINT('Origin',(20.,4.75,0.));
#1088=UNCERTAINTY_MEASURE_WITH_UNIT(LENGTH_MEASURE(0.01),#1092,
'DISTANCE_ACCURACY_VALUE',
'Maximum model space distance between geometric entities at asserted c
onnectivities');
#1089=UNCERTAINTY_MEASURE_WITH_UNIT(LENGTH_MEASURE(0.01),#1092,
'DISTANCE_ACCURACY_VALUE',
'Maximum model space distance between geometric entities at asserted c
onnectivities');
#1090=(
GEOMETRIC_REPRESENTATION_CONTEXT(3)
GLOBAL_UNCERTAINTY_ASSIGNED_CONTEXT((#1088))
GLOBAL_UNIT_ASSIGNED_CONTEXT((#1092,#1094,#1095))
REPRESENTATION_CONTEXT('','3D')
);
#1091=(
GEOMETRIC_REPRESENTATION_CONTEXT(3)
GLOBAL_UNCERTAINTY_ASSIGNED_CONTEXT((#1089))
GLOBAL_UNIT_ASSIGNED_CONTEXT((#1092,#1094,#1095))
REPRESENTATION_CONTEXT('','3D')
);
#1092=(
LENGTH_UNIT()
NAMED_UNIT(*)
SI_UNIT(.MILLI.,.METRE.)
);
#1093=(
LENGTH_UNIT()
NAMED_UNIT(*)
SI_UNIT($,.METRE.)
);
#1094=(
NAMED_UNIT(*)
PLANE_ANGLE_UNIT()
SI_UNIT($,.RADIAN.)
);
#1095=(
NAMED_UNIT(*)
SI_UNIT($,.STERADIAN.)
SOLID_ANGLE_UNIT()
);
#1096=SHAPE_DEFINITION_REPRESENTATION(#1097,#1098);
#1097=PRODUCT_DEFINITION_SHAPE('',$,#1100);
#1098=SHAPE_REPRESENTATION('',(#362),#1090);
#1099=PRODUCT_DEFINITION_CONTEXT('part definition',#1104,'design');
#1100=PRODUCT_DEFINITION('locking_seal_bottom','locking_seal_bottom v3',
#1101,#1099);
#1101=PRODUCT_DEFINITION_FORMATION('',$,#1106);
#1102=PRODUCT_RELATED_PRODUCT_CATEGORY('locking_seal_bottom v3',
'locking_seal_bottom v3',(#1106));
#1103=APPLICATION_PROTOCOL_DEFINITION('international standard',
'automotive_design',2009,#1104);
#1104=APPLICATION_CONTEXT(
'Core Data for Automotive Mechanical Design Process');
#1105=PRODUCT_CONTEXT('part definition',#1104,'mechanical');
#1106=PRODUCT('locking_seal_bottom','locking_seal_bottom v3',$,(#1105));
#1107=PRESENTATION_STYLE_ASSIGNMENT((#1108));
#1108=SURFACE_STYLE_USAGE(.BOTH.,#1109);
#1109=SURFACE_SIDE_STYLE('',(#1110));
#1110=SURFACE_STYLE_FILL_AREA(#1111);
#1111=FILL_AREA_STYLE('Steel - Satin',(#1112));
#1112=FILL_AREA_STYLE_COLOUR('Steel - Satin',#1113);
#1113=COLOUR_RGB('Steel - Satin',0.627450980392157,0.627450980392157,0.627450980392157);
ENDSEC;
END-ISO-10303-21;
