ISO-10303-21;
HEADER;
/* Generated by software containing ST-Developer
 * from STEP Tools, Inc. (www.steptools.com) 
 */

FILE_DESCRIPTION(
/* description */ (''),
/* implementation_level */ '2;1');

FILE_NAME(
/* name */ 'shaft_sa4_sa5_servo v1.step',
/* time_stamp */ '2023-05-17T22:41:17+02:00',
/* author */ (''),
/* organization */ (''),
/* preprocessor_version */ 'ST-DEVELOPER v19.2',
/* originating_system */ 'Autodesk Translation Framework v12.4.0.73',
/* authorisation */ '');

FILE_SCHEMA (('AUTOMOTIVE_DESIGN { 1 0 10303 214 3 1 1 }'));
ENDSEC;

DATA;
#10=MECHANICAL_DESIGN_GEOMETRIC_PRESENTATION_REPRESENTATION('',(#13),#464);
#11=SHAPE_REPRESENTATION_RELATIONSHIP('SRR','None',#471,#12);
#12=ADVANCED_BREP_SHAPE_REPRESENTATION('',(#14),#463);
#13=STYLED_ITEM('',(#480),#14);
#14=MANIFOLD_SOLID_BREP('Body1',#268);
#15=CYLINDRICAL_SURFACE('',#293,2.75);
#16=CYLINDRICAL_SURFACE('',#295,2.75);
#17=CYLINDRICAL_SURFACE('',#299,2.);
#18=CYLINDRICAL_SURFACE('',#301,2.5);
#19=CYLINDRICAL_SURFACE('',#307,6.);
#20=FACE_BOUND('',#57,.T.);
#21=FACE_BOUND('',#63,.T.);
#22=FACE_BOUND('',#67,.T.);
#23=FACE_BOUND('',#71,.T.);
#24=FACE_BOUND('',#73,.T.);
#25=FACE_BOUND('',#75,.T.);
#26=FACE_BOUND('',#77,.T.);
#27=CIRCLE('',#284,6.);
#28=CIRCLE('',#285,2.75);
#29=CIRCLE('',#291,6.);
#30=CIRCLE('',#292,2.75);
#31=CIRCLE('',#294,2.75);
#32=CIRCLE('',#296,2.75);
#33=CIRCLE('',#298,2.);
#34=CIRCLE('',#300,2.);
#35=CIRCLE('',#302,2.5);
#36=CIRCLE('',#303,2.5);
#37=CIRCLE('',#306,6.);
#38=CIRCLE('',#308,6.);
#39=FACE_OUTER_BOUND('',#55,.T.);
#40=FACE_OUTER_BOUND('',#56,.T.);
#41=FACE_OUTER_BOUND('',#58,.T.);
#42=FACE_OUTER_BOUND('',#59,.T.);
#43=FACE_OUTER_BOUND('',#60,.T.);
#44=FACE_OUTER_BOUND('',#61,.T.);
#45=FACE_OUTER_BOUND('',#62,.T.);
#46=FACE_OUTER_BOUND('',#64,.T.);
#47=FACE_OUTER_BOUND('',#65,.T.);
#48=FACE_OUTER_BOUND('',#66,.T.);
#49=FACE_OUTER_BOUND('',#68,.T.);
#50=FACE_OUTER_BOUND('',#69,.T.);
#51=FACE_OUTER_BOUND('',#70,.T.);
#52=FACE_OUTER_BOUND('',#72,.T.);
#53=FACE_OUTER_BOUND('',#74,.T.);
#54=FACE_OUTER_BOUND('',#76,.T.);
#55=EDGE_LOOP('',(#175,#176,#177,#178));
#56=EDGE_LOOP('',(#179,#180,#181,#182,#183,#184));
#57=EDGE_LOOP('',(#185));
#58=EDGE_LOOP('',(#186,#187,#188,#189));
#59=EDGE_LOOP('',(#190,#191,#192,#193));
#60=EDGE_LOOP('',(#194,#195,#196,#197));
#61=EDGE_LOOP('',(#198,#199,#200,#201));
#62=EDGE_LOOP('',(#202,#203,#204,#205,#206,#207));
#63=EDGE_LOOP('',(#208));
#64=EDGE_LOOP('',(#209,#210,#211,#212));
#65=EDGE_LOOP('',(#213,#214,#215,#216));
#66=EDGE_LOOP('',(#217));
#67=EDGE_LOOP('',(#218));
#68=EDGE_LOOP('',(#219,#220,#221,#222));
#69=EDGE_LOOP('',(#223,#224,#225,#226));
#70=EDGE_LOOP('',(#227));
#71=EDGE_LOOP('',(#228));
#72=EDGE_LOOP('',(#229));
#73=EDGE_LOOP('',(#230));
#74=EDGE_LOOP('',(#231,#232,#233,#234));
#75=EDGE_LOOP('',(#235,#236,#237,#238));
#76=EDGE_LOOP('',(#239));
#77=EDGE_LOOP('',(#240));
#78=LINE('',#393,#99);
#79=LINE('',#395,#100);
#80=LINE('',#397,#101);
#81=LINE('',#398,#102);
#82=LINE('',#403,#103);
#83=LINE('',#405,#104);
#84=LINE('',#407,#105);
#85=LINE('',#408,#106);
#86=LINE('',#413,#107);
#87=LINE('',#415,#108);
#88=LINE('',#416,#109);
#89=LINE('',#419,#110);
#90=LINE('',#420,#111);
#91=LINE('',#422,#112);
#92=LINE('',#425,#113);
#93=LINE('',#426,#114);
#94=LINE('',#433,#115);
#95=LINE('',#438,#116);
#96=LINE('',#445,#117);
#97=LINE('',#450,#118);
#98=LINE('',#459,#119);
#99=VECTOR('',#314,10.);
#100=VECTOR('',#315,10.);
#101=VECTOR('',#316,10.);
#102=VECTOR('',#317,10.);
#103=VECTOR('',#322,10.);
#104=VECTOR('',#323,10.);
#105=VECTOR('',#324,10.);
#106=VECTOR('',#325,10.);
#107=VECTOR('',#330,10.);
#108=VECTOR('',#331,10.);
#109=VECTOR('',#332,10.);
#110=VECTOR('',#335,10.);
#111=VECTOR('',#336,10.);
#112=VECTOR('',#339,10.);
#113=VECTOR('',#342,10.);
#114=VECTOR('',#343,10.);
#115=VECTOR('',#352,2.75);
#116=VECTOR('',#359,2.75);
#117=VECTOR('',#368,2.);
#118=VECTOR('',#373,2.5);
#119=VECTOR('',#386,6.);
#120=VERTEX_POINT('',#391);
#121=VERTEX_POINT('',#392);
#122=VERTEX_POINT('',#394);
#123=VERTEX_POINT('',#396);
#124=VERTEX_POINT('',#400);
#125=VERTEX_POINT('',#402);
#126=VERTEX_POINT('',#404);
#127=VERTEX_POINT('',#406);
#128=VERTEX_POINT('',#409);
#129=VERTEX_POINT('',#412);
#130=VERTEX_POINT('',#414);
#131=VERTEX_POINT('',#418);
#132=VERTEX_POINT('',#424);
#133=VERTEX_POINT('',#429);
#134=VERTEX_POINT('',#432);
#135=VERTEX_POINT('',#436);
#136=VERTEX_POINT('',#440);
#137=VERTEX_POINT('',#443);
#138=VERTEX_POINT('',#447);
#139=VERTEX_POINT('',#449);
#140=VERTEX_POINT('',#454);
#141=VERTEX_POINT('',#457);
#142=EDGE_CURVE('',#120,#121,#78,.T.);
#143=EDGE_CURVE('',#120,#122,#79,.T.);
#144=EDGE_CURVE('',#123,#122,#80,.T.);
#145=EDGE_CURVE('',#121,#123,#81,.T.);
#146=EDGE_CURVE('',#121,#124,#27,.T.);
#147=EDGE_CURVE('',#125,#123,#82,.T.);
#148=EDGE_CURVE('',#126,#125,#83,.T.);
#149=EDGE_CURVE('',#127,#126,#84,.T.);
#150=EDGE_CURVE('',#124,#127,#85,.T.);
#151=EDGE_CURVE('',#128,#128,#28,.T.);
#152=EDGE_CURVE('',#126,#129,#86,.T.);
#153=EDGE_CURVE('',#129,#130,#87,.T.);
#154=EDGE_CURVE('',#127,#130,#88,.T.);
#155=EDGE_CURVE('',#125,#131,#89,.T.);
#156=EDGE_CURVE('',#131,#129,#90,.T.);
#157=EDGE_CURVE('',#122,#131,#91,.T.);
#158=EDGE_CURVE('',#124,#132,#92,.T.);
#159=EDGE_CURVE('',#130,#132,#93,.T.);
#160=EDGE_CURVE('',#132,#120,#29,.T.);
#161=EDGE_CURVE('',#133,#133,#30,.T.);
#162=EDGE_CURVE('',#133,#134,#94,.T.);
#163=EDGE_CURVE('',#134,#134,#31,.T.);
#164=EDGE_CURVE('',#135,#135,#32,.T.);
#165=EDGE_CURVE('',#135,#128,#95,.T.);
#166=EDGE_CURVE('',#136,#136,#33,.T.);
#167=EDGE_CURVE('',#137,#137,#34,.T.);
#168=EDGE_CURVE('',#137,#136,#96,.T.);
#169=EDGE_CURVE('',#138,#138,#35,.T.);
#170=EDGE_CURVE('',#138,#139,#97,.T.);
#171=EDGE_CURVE('',#139,#139,#36,.T.);
#172=EDGE_CURVE('',#140,#140,#37,.T.);
#173=EDGE_CURVE('',#141,#141,#38,.T.);
#174=EDGE_CURVE('',#141,#140,#98,.T.);
#175=ORIENTED_EDGE('',*,*,#142,.F.);
#176=ORIENTED_EDGE('',*,*,#143,.T.);
#177=ORIENTED_EDGE('',*,*,#144,.F.);
#178=ORIENTED_EDGE('',*,*,#145,.F.);
#179=ORIENTED_EDGE('',*,*,#146,.F.);
#180=ORIENTED_EDGE('',*,*,#145,.T.);
#181=ORIENTED_EDGE('',*,*,#147,.F.);
#182=ORIENTED_EDGE('',*,*,#148,.F.);
#183=ORIENTED_EDGE('',*,*,#149,.F.);
#184=ORIENTED_EDGE('',*,*,#150,.F.);
#185=ORIENTED_EDGE('',*,*,#151,.F.);
#186=ORIENTED_EDGE('',*,*,#149,.T.);
#187=ORIENTED_EDGE('',*,*,#152,.T.);
#188=ORIENTED_EDGE('',*,*,#153,.T.);
#189=ORIENTED_EDGE('',*,*,#154,.F.);
#190=ORIENTED_EDGE('',*,*,#148,.T.);
#191=ORIENTED_EDGE('',*,*,#155,.T.);
#192=ORIENTED_EDGE('',*,*,#156,.T.);
#193=ORIENTED_EDGE('',*,*,#152,.F.);
#194=ORIENTED_EDGE('',*,*,#147,.T.);
#195=ORIENTED_EDGE('',*,*,#144,.T.);
#196=ORIENTED_EDGE('',*,*,#157,.T.);
#197=ORIENTED_EDGE('',*,*,#155,.F.);
#198=ORIENTED_EDGE('',*,*,#158,.F.);
#199=ORIENTED_EDGE('',*,*,#150,.T.);
#200=ORIENTED_EDGE('',*,*,#154,.T.);
#201=ORIENTED_EDGE('',*,*,#159,.T.);
#202=ORIENTED_EDGE('',*,*,#160,.F.);
#203=ORIENTED_EDGE('',*,*,#159,.F.);
#204=ORIENTED_EDGE('',*,*,#153,.F.);
#205=ORIENTED_EDGE('',*,*,#156,.F.);
#206=ORIENTED_EDGE('',*,*,#157,.F.);
#207=ORIENTED_EDGE('',*,*,#143,.F.);
#208=ORIENTED_EDGE('',*,*,#161,.F.);
#209=ORIENTED_EDGE('',*,*,#161,.T.);
#210=ORIENTED_EDGE('',*,*,#162,.T.);
#211=ORIENTED_EDGE('',*,*,#163,.T.);
#212=ORIENTED_EDGE('',*,*,#162,.F.);
#213=ORIENTED_EDGE('',*,*,#164,.F.);
#214=ORIENTED_EDGE('',*,*,#165,.T.);
#215=ORIENTED_EDGE('',*,*,#151,.T.);
#216=ORIENTED_EDGE('',*,*,#165,.F.);
#217=ORIENTED_EDGE('',*,*,#163,.F.);
#218=ORIENTED_EDGE('',*,*,#166,.F.);
#219=ORIENTED_EDGE('',*,*,#167,.T.);
#220=ORIENTED_EDGE('',*,*,#168,.T.);
#221=ORIENTED_EDGE('',*,*,#166,.T.);
#222=ORIENTED_EDGE('',*,*,#168,.F.);
#223=ORIENTED_EDGE('',*,*,#169,.F.);
#224=ORIENTED_EDGE('',*,*,#170,.T.);
#225=ORIENTED_EDGE('',*,*,#171,.T.);
#226=ORIENTED_EDGE('',*,*,#170,.F.);
#227=ORIENTED_EDGE('',*,*,#171,.F.);
#228=ORIENTED_EDGE('',*,*,#167,.F.);
#229=ORIENTED_EDGE('',*,*,#172,.F.);
#230=ORIENTED_EDGE('',*,*,#169,.T.);
#231=ORIENTED_EDGE('',*,*,#173,.F.);
#232=ORIENTED_EDGE('',*,*,#174,.T.);
#233=ORIENTED_EDGE('',*,*,#172,.T.);
#234=ORIENTED_EDGE('',*,*,#174,.F.);
#235=ORIENTED_EDGE('',*,*,#158,.T.);
#236=ORIENTED_EDGE('',*,*,#160,.T.);
#237=ORIENTED_EDGE('',*,*,#142,.T.);
#238=ORIENTED_EDGE('',*,*,#146,.T.);
#239=ORIENTED_EDGE('',*,*,#173,.T.);
#240=ORIENTED_EDGE('',*,*,#164,.T.);
#241=PLANE('',#282);
#242=PLANE('',#283);
#243=PLANE('',#286);
#244=PLANE('',#287);
#245=PLANE('',#288);
#246=PLANE('',#289);
#247=PLANE('',#290);
#248=PLANE('',#297);
#249=PLANE('',#304);
#250=PLANE('',#305);
#251=PLANE('',#309);
#252=ADVANCED_FACE('',(#39),#241,.F.);
#253=ADVANCED_FACE('',(#40,#20),#242,.F.);
#254=ADVANCED_FACE('',(#41),#243,.F.);
#255=ADVANCED_FACE('',(#42),#244,.F.);
#256=ADVANCED_FACE('',(#43),#245,.F.);
#257=ADVANCED_FACE('',(#44),#246,.F.);
#258=ADVANCED_FACE('',(#45,#21),#247,.F.);
#259=ADVANCED_FACE('',(#46),#15,.F.);
#260=ADVANCED_FACE('',(#47),#16,.F.);
#261=ADVANCED_FACE('',(#48,#22),#248,.T.);
#262=ADVANCED_FACE('',(#49),#17,.F.);
#263=ADVANCED_FACE('',(#50),#18,.F.);
#264=ADVANCED_FACE('',(#51,#23),#249,.T.);
#265=ADVANCED_FACE('',(#52,#24),#250,.F.);
#266=ADVANCED_FACE('',(#53,#25),#19,.T.);
#267=ADVANCED_FACE('',(#54,#26),#251,.T.);
#268=CLOSED_SHELL('',(#252,#253,#254,#255,#256,#257,#258,#259,#260,#261,
#262,#263,#264,#265,#266,#267));
#269=DERIVED_UNIT_ELEMENT(#271,1.);
#270=DERIVED_UNIT_ELEMENT(#466,-3.);
#271=(
MASS_UNIT()
NAMED_UNIT(*)
SI_UNIT(.KILO.,.GRAM.)
);
#272=DERIVED_UNIT((#269,#270));
#273=MEASURE_REPRESENTATION_ITEM('density measure',
POSITIVE_RATIO_MEASURE(7850.),#272);
#274=PROPERTY_DEFINITION_REPRESENTATION(#279,#276);
#275=PROPERTY_DEFINITION_REPRESENTATION(#280,#277);
#276=REPRESENTATION('material name',(#278),#463);
#277=REPRESENTATION('density',(#273),#463);
#278=DESCRIPTIVE_REPRESENTATION_ITEM('Steel','Steel');
#279=PROPERTY_DEFINITION('material property','material name',#473);
#280=PROPERTY_DEFINITION('material property','density of part',#473);
#281=AXIS2_PLACEMENT_3D('',#389,#310,#311);
#282=AXIS2_PLACEMENT_3D('',#390,#312,#313);
#283=AXIS2_PLACEMENT_3D('',#399,#318,#319);
#284=AXIS2_PLACEMENT_3D('',#401,#320,#321);
#285=AXIS2_PLACEMENT_3D('',#410,#326,#327);
#286=AXIS2_PLACEMENT_3D('',#411,#328,#329);
#287=AXIS2_PLACEMENT_3D('',#417,#333,#334);
#288=AXIS2_PLACEMENT_3D('',#421,#337,#338);
#289=AXIS2_PLACEMENT_3D('',#423,#340,#341);
#290=AXIS2_PLACEMENT_3D('',#427,#344,#345);
#291=AXIS2_PLACEMENT_3D('',#428,#346,#347);
#292=AXIS2_PLACEMENT_3D('',#430,#348,#349);
#293=AXIS2_PLACEMENT_3D('',#431,#350,#351);
#294=AXIS2_PLACEMENT_3D('',#434,#353,#354);
#295=AXIS2_PLACEMENT_3D('',#435,#355,#356);
#296=AXIS2_PLACEMENT_3D('',#437,#357,#358);
#297=AXIS2_PLACEMENT_3D('',#439,#360,#361);
#298=AXIS2_PLACEMENT_3D('',#441,#362,#363);
#299=AXIS2_PLACEMENT_3D('',#442,#364,#365);
#300=AXIS2_PLACEMENT_3D('',#444,#366,#367);
#301=AXIS2_PLACEMENT_3D('',#446,#369,#370);
#302=AXIS2_PLACEMENT_3D('',#448,#371,#372);
#303=AXIS2_PLACEMENT_3D('',#451,#374,#375);
#304=AXIS2_PLACEMENT_3D('',#452,#376,#377);
#305=AXIS2_PLACEMENT_3D('',#453,#378,#379);
#306=AXIS2_PLACEMENT_3D('',#455,#380,#381);
#307=AXIS2_PLACEMENT_3D('',#456,#382,#383);
#308=AXIS2_PLACEMENT_3D('',#458,#384,#385);
#309=AXIS2_PLACEMENT_3D('',#460,#387,#388);
#310=DIRECTION('axis',(0.,0.,1.));
#311=DIRECTION('refdir',(1.,0.,0.));
#312=DIRECTION('center_axis',(-0.999648749584712,0.,-0.0265024046781186));
#313=DIRECTION('ref_axis',(0.0265024046781186,0.,-0.999648749584712));
#314=DIRECTION('',(0.,1.,0.));
#315=DIRECTION('',(0.0265024046781186,0.,-0.999648749584712));
#316=DIRECTION('',(0.,-1.,0.));
#317=DIRECTION('',(0.0265024046781186,0.,-0.999648749584712));
#318=DIRECTION('center_axis',(0.,1.,0.));
#319=DIRECTION('ref_axis',(1.,0.,0.));
#320=DIRECTION('center_axis',(0.,1.,0.));
#321=DIRECTION('ref_axis',(1.,0.,0.));
#322=DIRECTION('',(-3.60555503696918E-16,0.,1.));
#323=DIRECTION('',(-0.866025403784439,0.,0.5));
#324=DIRECTION('',(-0.866025403784438,0.,-0.5));
#325=DIRECTION('',(2.40370335797945E-16,0.,-1.));
#326=DIRECTION('center_axis',(0.,-1.,0.));
#327=DIRECTION('ref_axis',(-1.,0.,0.));
#328=DIRECTION('center_axis',(0.5,0.,-0.866025403784439));
#329=DIRECTION('ref_axis',(0.866025403784439,0.,0.5));
#330=DIRECTION('',(0.,-1.,0.));
#331=DIRECTION('',(0.866025403784438,0.,0.5));
#332=DIRECTION('',(0.,-1.,0.));
#333=DIRECTION('center_axis',(-0.5,0.,-0.866025403784439));
#334=DIRECTION('ref_axis',(0.866025403784439,0.,-0.5));
#335=DIRECTION('',(0.,-1.,0.));
#336=DIRECTION('',(0.866025403784439,0.,-0.5));
#337=DIRECTION('center_axis',(-1.,0.,-3.60555503696918E-16));
#338=DIRECTION('ref_axis',(3.60555503696918E-16,0.,-1.));
#339=DIRECTION('',(3.60555503696918E-16,0.,-1.));
#340=DIRECTION('center_axis',(1.,0.,2.40370335797945E-16));
#341=DIRECTION('ref_axis',(-2.40370335797945E-16,0.,1.));
#342=DIRECTION('',(0.,-1.,0.));
#343=DIRECTION('',(-2.40370335797945E-16,0.,1.));
#344=DIRECTION('center_axis',(0.,-1.,0.));
#345=DIRECTION('ref_axis',(0.,0.,-1.));
#346=DIRECTION('center_axis',(0.,-1.,0.));
#347=DIRECTION('ref_axis',(1.,0.,0.));
#348=DIRECTION('center_axis',(0.,1.,0.));
#349=DIRECTION('ref_axis',(-1.,0.,0.));
#350=DIRECTION('center_axis',(0.,-1.,0.));
#351=DIRECTION('ref_axis',(-1.,0.,0.));
#352=DIRECTION('',(0.,-1.,0.));
#353=DIRECTION('center_axis',(0.,-1.,0.));
#354=DIRECTION('ref_axis',(-1.,0.,0.));
#355=DIRECTION('center_axis',(0.,-1.,0.));
#356=DIRECTION('ref_axis',(-1.,0.,0.));
#357=DIRECTION('center_axis',(0.,-1.,0.));
#358=DIRECTION('ref_axis',(-1.,0.,0.));
#359=DIRECTION('',(0.,-1.,0.));
#360=DIRECTION('center_axis',(0.,1.,0.));
#361=DIRECTION('ref_axis',(-1.,0.,0.));
#362=DIRECTION('center_axis',(0.,1.,0.));
#363=DIRECTION('ref_axis',(1.,0.,0.));
#364=DIRECTION('center_axis',(0.,1.,0.));
#365=DIRECTION('ref_axis',(1.,0.,0.));
#366=DIRECTION('center_axis',(0.,-1.,0.));
#367=DIRECTION('ref_axis',(1.,0.,0.));
#368=DIRECTION('',(0.,1.,0.));
#369=DIRECTION('center_axis',(0.,1.,0.));
#370=DIRECTION('ref_axis',(1.,0.,0.));
#371=DIRECTION('center_axis',(0.,1.,0.));
#372=DIRECTION('ref_axis',(1.,0.,0.));
#373=DIRECTION('',(0.,1.,0.));
#374=DIRECTION('center_axis',(0.,1.,0.));
#375=DIRECTION('ref_axis',(1.,0.,0.));
#376=DIRECTION('center_axis',(0.,-1.,0.));
#377=DIRECTION('ref_axis',(1.,0.,0.));
#378=DIRECTION('center_axis',(0.,1.,0.));
#379=DIRECTION('ref_axis',(1.,0.,0.));
#380=DIRECTION('center_axis',(0.,1.,0.));
#381=DIRECTION('ref_axis',(1.,0.,0.));
#382=DIRECTION('center_axis',(0.,1.,0.));
#383=DIRECTION('ref_axis',(1.,0.,0.));
#384=DIRECTION('center_axis',(0.,1.,0.));
#385=DIRECTION('ref_axis',(1.,0.,0.));
#386=DIRECTION('',(0.,-1.,0.));
#387=DIRECTION('center_axis',(0.,1.,0.));
#388=DIRECTION('ref_axis',(1.,0.,0.));
#389=CARTESIAN_POINT('',(0.,0.,0.));
#390=CARTESIAN_POINT('Origin',(-4.12435583364912,39.,7.00000010430813));
#391=CARTESIAN_POINT('',(-4.05599314234843,34.8,4.42141602082664));
#392=CARTESIAN_POINT('',(-4.05599314234843,39.,4.42141602082664));
#393=CARTESIAN_POINT('',(-4.05599314234843,0.,4.42141602082664));
#394=CARTESIAN_POINT('',(-4.,34.8,2.3094010767585));
#395=CARTESIAN_POINT('',(-4.12435583364912,34.8,7.00000010430813));
#396=CARTESIAN_POINT('',(-4.,39.,2.3094010767585));
#397=CARTESIAN_POINT('',(-4.,39.,2.3094010767585));
#398=CARTESIAN_POINT('',(-4.12435583364912,39.,7.00000010430813));
#399=CARTESIAN_POINT('Origin',(-0.0621779168245618,39.,1.19059897539556));
#400=CARTESIAN_POINT('',(4.,39.,4.47213595499958));
#401=CARTESIAN_POINT('Origin',(0.,39.,0.));
#402=CARTESIAN_POINT('',(-4.,39.,-2.3094010767585));
#403=CARTESIAN_POINT('',(-4.,39.,-2.3094010767585));
#404=CARTESIAN_POINT('',(1.11022302462516E-15,39.,-4.61880215351701));
#405=CARTESIAN_POINT('',(1.11022302462516E-15,39.,-4.61880215351701));
#406=CARTESIAN_POINT('',(4.,39.,-2.3094010767585));
#407=CARTESIAN_POINT('',(4.,39.,-2.3094010767585));
#408=CARTESIAN_POINT('',(4.,39.,2.30940107675851));
#409=CARTESIAN_POINT('',(2.75,39.,3.36777869765522E-16));
#410=CARTESIAN_POINT('Origin',(0.,39.,0.));
#411=CARTESIAN_POINT('Origin',(1.11022302462516E-15,39.,-4.61880215351701));
#412=CARTESIAN_POINT('',(1.11022302462516E-15,34.8,-4.61880215351701));
#413=CARTESIAN_POINT('',(1.11022302462516E-15,39.,-4.61880215351701));
#414=CARTESIAN_POINT('',(4.,34.8,-2.3094010767585));
#415=CARTESIAN_POINT('',(4.,34.8,-2.3094010767585));
#416=CARTESIAN_POINT('',(4.,39.,-2.3094010767585));
#417=CARTESIAN_POINT('Origin',(-4.,39.,-2.3094010767585));
#418=CARTESIAN_POINT('',(-4.,34.8,-2.3094010767585));
#419=CARTESIAN_POINT('',(-4.,39.,-2.3094010767585));
#420=CARTESIAN_POINT('',(1.11022302462516E-15,34.8,-4.61880215351701));
#421=CARTESIAN_POINT('Origin',(-4.,39.,2.3094010767585));
#422=CARTESIAN_POINT('',(-4.,34.8,-2.3094010767585));
#423=CARTESIAN_POINT('Origin',(4.,39.,-2.3094010767585));
#424=CARTESIAN_POINT('',(4.,34.8,4.47213595499958));
#425=CARTESIAN_POINT('',(4.,0.,4.47213595499958));
#426=CARTESIAN_POINT('',(4.,34.8,2.30940107675851));
#427=CARTESIAN_POINT('Origin',(-0.0621779168245618,34.8,1.19059897539556));
#428=CARTESIAN_POINT('Origin',(0.,34.8,0.));
#429=CARTESIAN_POINT('',(2.75,34.8,-3.36777869765522E-16));
#430=CARTESIAN_POINT('Origin',(0.,34.8,0.));
#431=CARTESIAN_POINT('Origin',(0.,45.,0.));
#432=CARTESIAN_POINT('',(2.75,21.,-3.36777869765522E-16));
#433=CARTESIAN_POINT('',(2.75,45.,3.36777869765522E-16));
#434=CARTESIAN_POINT('Origin',(0.,21.,0.));
#435=CARTESIAN_POINT('Origin',(0.,45.,0.));
#436=CARTESIAN_POINT('',(2.75,45.,-3.36777869765522E-16));
#437=CARTESIAN_POINT('Origin',(0.,45.,0.));
#438=CARTESIAN_POINT('',(2.75,45.,3.36777869765522E-16));
#439=CARTESIAN_POINT('Origin',(0.,21.,0.));
#440=CARTESIAN_POINT('',(-2.,21.,2.44929359829471E-16));
#441=CARTESIAN_POINT('Origin',(0.,21.,0.));
#442=CARTESIAN_POINT('Origin',(0.,0.,0.));
#443=CARTESIAN_POINT('',(-2.,5.5,-2.44929359829471E-16));
#444=CARTESIAN_POINT('Origin',(0.,5.5,0.));
#445=CARTESIAN_POINT('',(-2.,0.,2.44929359829471E-16));
#446=CARTESIAN_POINT('Origin',(0.,0.,0.));
#447=CARTESIAN_POINT('',(-2.5,0.,-3.06161699786838E-16));
#448=CARTESIAN_POINT('Origin',(0.,0.,0.));
#449=CARTESIAN_POINT('',(-2.5,5.5,-3.06161699786838E-16));
#450=CARTESIAN_POINT('',(-2.5,0.,3.06161699786838E-16));
#451=CARTESIAN_POINT('Origin',(0.,5.5,0.));
#452=CARTESIAN_POINT('Origin',(0.,5.5,0.));
#453=CARTESIAN_POINT('Origin',(0.,0.,0.));
#454=CARTESIAN_POINT('',(-6.,0.,7.34788079488412E-16));
#455=CARTESIAN_POINT('Origin',(0.,0.,0.));
#456=CARTESIAN_POINT('Origin',(0.,0.,0.));
#457=CARTESIAN_POINT('',(-6.,45.,7.34788079488412E-16));
#458=CARTESIAN_POINT('Origin',(0.,45.,0.));
#459=CARTESIAN_POINT('',(-6.,0.,7.34788079488412E-16));
#460=CARTESIAN_POINT('Origin',(0.,45.,0.));
#461=UNCERTAINTY_MEASURE_WITH_UNIT(LENGTH_MEASURE(0.01),#465,
'DISTANCE_ACCURACY_VALUE',
'Maximum model space distance between geometric entities at asserted c
onnectivities');
#462=UNCERTAINTY_MEASURE_WITH_UNIT(LENGTH_MEASURE(0.01),#465,
'DISTANCE_ACCURACY_VALUE',
'Maximum model space distance between geometric entities at asserted c
onnectivities');
#463=(
GEOMETRIC_REPRESENTATION_CONTEXT(3)
GLOBAL_UNCERTAINTY_ASSIGNED_CONTEXT((#461))
GLOBAL_UNIT_ASSIGNED_CONTEXT((#465,#467,#468))
REPRESENTATION_CONTEXT('','3D')
);
#464=(
GEOMETRIC_REPRESENTATION_CONTEXT(3)
GLOBAL_UNCERTAINTY_ASSIGNED_CONTEXT((#462))
GLOBAL_UNIT_ASSIGNED_CONTEXT((#465,#467,#468))
REPRESENTATION_CONTEXT('','3D')
);
#465=(
LENGTH_UNIT()
NAMED_UNIT(*)
SI_UNIT(.MILLI.,.METRE.)
);
#466=(
LENGTH_UNIT()
NAMED_UNIT(*)
SI_UNIT($,.METRE.)
);
#467=(
NAMED_UNIT(*)
PLANE_ANGLE_UNIT()
SI_UNIT($,.RADIAN.)
);
#468=(
NAMED_UNIT(*)
SI_UNIT($,.STERADIAN.)
SOLID_ANGLE_UNIT()
);
#469=SHAPE_DEFINITION_REPRESENTATION(#470,#471);
#470=PRODUCT_DEFINITION_SHAPE('',$,#473);
#471=SHAPE_REPRESENTATION('',(#281),#463);
#472=PRODUCT_DEFINITION_CONTEXT('part definition',#477,'design');
#473=PRODUCT_DEFINITION('shaft_sa4_sa5_servo','shaft_sa4_sa5_servo v1',
#474,#472);
#474=PRODUCT_DEFINITION_FORMATION('',$,#479);
#475=PRODUCT_RELATED_PRODUCT_CATEGORY('shaft_sa4_sa5_servo v1',
'shaft_sa4_sa5_servo v1',(#479));
#476=APPLICATION_PROTOCOL_DEFINITION('international standard',
'automotive_design',2009,#477);
#477=APPLICATION_CONTEXT(
'Core Data for Automotive Mechanical Design Process');
#478=PRODUCT_CONTEXT('part definition',#477,'mechanical');
#479=PRODUCT('shaft_sa4_sa5_servo','shaft_sa4_sa5_servo v1',$,(#478));
#480=PRESENTATION_STYLE_ASSIGNMENT((#481));
#481=SURFACE_STYLE_USAGE(.BOTH.,#482);
#482=SURFACE_SIDE_STYLE('',(#483));
#483=SURFACE_STYLE_FILL_AREA(#484);
#484=FILL_AREA_STYLE('Steel - Satin',(#485));
#485=FILL_AREA_STYLE_COLOUR('Steel - Satin',#486);
#486=COLOUR_RGB('Steel - Satin',0.627450980392157,0.627450980392157,0.627450980392157);
ENDSEC;
END-ISO-10303-21;
