ISO-10303-21;
HEADER;
/* Generated by software containing ST-Developer
 * from STEP Tools, Inc. (www.steptools.com) 
 */

FILE_DESCRIPTION(
/* description */ (''),
/* implementation_level */ '2;1');

FILE_NAME(
/* name */ 'shaft_sa4_servo v2.step',
/* time_stamp */ '2023-05-17T22:42:35+02:00',
/* author */ (''),
/* organization */ (''),
/* preprocessor_version */ 'ST-DEVELOPER v19.2',
/* originating_system */ 'Autodesk Translation Framework v12.4.0.73',
/* authorisation */ '');

FILE_SCHEMA (('AUTOMOTIVE_DESIGN { 1 0 10303 214 3 1 1 }'));
ENDSEC;

DATA;
#10=MECHANICAL_DESIGN_GEOMETRIC_PRESENTATION_REPRESENTATION('',(#13),#622);
#11=SHAPE_REPRESENTATION_RELATIONSHIP('SRR','None',#629,#12);
#12=ADVANCED_BREP_SHAPE_REPRESENTATION('',(#14),#621);
#13=STYLED_ITEM('',(#638),#14);
#14=MANIFOLD_SOLID_BREP('Body1',#350);
#15=CYLINDRICAL_SURFACE('',#380,2.1);
#16=CYLINDRICAL_SURFACE('',#382,1.05);
#17=CYLINDRICAL_SURFACE('',#386,1.5);
#18=CYLINDRICAL_SURFACE('',#388,1.5);
#19=B_SPLINE_CURVE_WITH_KNOTS('',3,(#521,#522,#523,#524,#525,#526),
 .UNSPECIFIED.,.F.,.F.,(4,2,4),(0.982006891793726,1.11232343894118,1.18686870781405),
 .UNSPECIFIED.);
#20=B_SPLINE_CURVE_WITH_KNOTS('',3,(#530,#531,#532,#533,#534,#535,#536,
#537,#538,#539),.UNSPECIFIED.,.F.,.F.,(4,2,2,2,4),(0.741464749567257,0.816010012351791,
0.964166714304693,1.11232341625759,1.18686867904213),.UNSPECIFIED.);
#21=B_SPLINE_CURVE_WITH_KNOTS('',3,(#543,#544,#545,#546,#547,#548,#549,
#550,#551,#552),.UNSPECIFIED.,.F.,.F.,(4,2,2,2,4),(0.757814041808921,0.78116401313877,
0.836810108384851,0.892456203630932,0.91580617496078),.UNSPECIFIED.);
#22=B_SPLINE_CURVE_WITH_KNOTS('',3,(#555,#556,#557,#558,#559,#560,#561,
#562),.UNSPECIFIED.,.F.,.F.,(4,2,2,4),(0.741464752902652,0.816010021775521,
0.964166730358352,0.982006891793726),.UNSPECIFIED.);
#23=TOROIDAL_SURFACE('',#368,3.6,1.5);
#24=FACE_BOUND('',#60,.T.);
#25=FACE_BOUND('',#61,.T.);
#26=FACE_BOUND('',#65,.T.);
#27=FACE_BOUND('',#70,.T.);
#28=CIRCLE('',#365,1.05);
#29=CIRCLE('',#366,1.5);
#30=CIRCLE('',#367,1.5);
#31=CIRCLE('',#369,2.1);
#32=CIRCLE('',#370,1.5);
#33=CIRCLE('',#371,3.6);
#34=CIRCLE('',#372,3.6);
#35=CIRCLE('',#373,3.6);
#36=CIRCLE('',#374,2.1);
#37=CIRCLE('',#377,1.5);
#38=CIRCLE('',#378,1.5);
#39=CIRCLE('',#381,2.1);
#40=CIRCLE('',#383,1.05);
#41=FACE_OUTER_BOUND('',#59,.T.);
#42=FACE_OUTER_BOUND('',#62,.T.);
#43=FACE_OUTER_BOUND('',#63,.T.);
#44=FACE_OUTER_BOUND('',#64,.T.);
#45=FACE_OUTER_BOUND('',#66,.T.);
#46=FACE_OUTER_BOUND('',#67,.T.);
#47=FACE_OUTER_BOUND('',#68,.T.);
#48=FACE_OUTER_BOUND('',#69,.T.);
#49=FACE_OUTER_BOUND('',#71,.T.);
#50=FACE_OUTER_BOUND('',#72,.T.);
#51=FACE_OUTER_BOUND('',#73,.T.);
#52=FACE_OUTER_BOUND('',#74,.T.);
#53=FACE_OUTER_BOUND('',#75,.T.);
#54=FACE_OUTER_BOUND('',#76,.T.);
#55=FACE_OUTER_BOUND('',#77,.T.);
#56=FACE_OUTER_BOUND('',#78,.T.);
#57=FACE_OUTER_BOUND('',#79,.T.);
#58=FACE_OUTER_BOUND('',#80,.T.);
#59=EDGE_LOOP('',(#223,#224,#225,#226,#227,#228));
#60=EDGE_LOOP('',(#229));
#61=EDGE_LOOP('',(#230,#231,#232,#233));
#62=EDGE_LOOP('',(#234,#235,#236,#237,#238,#239,#240,#241,#242,#243,#244));
#63=EDGE_LOOP('',(#245,#246,#247));
#64=EDGE_LOOP('',(#248,#249,#250,#251,#252,#253));
#65=EDGE_LOOP('',(#254,#255,#256,#257));
#66=EDGE_LOOP('',(#258,#259,#260));
#67=EDGE_LOOP('',(#261,#262,#263,#264,#265));
#68=EDGE_LOOP('',(#266,#267,#268,#269));
#69=EDGE_LOOP('',(#270));
#70=EDGE_LOOP('',(#271));
#71=EDGE_LOOP('',(#272,#273,#274,#275));
#72=EDGE_LOOP('',(#276,#277,#278,#279));
#73=EDGE_LOOP('',(#280,#281,#282,#283));
#74=EDGE_LOOP('',(#284,#285,#286,#287));
#75=EDGE_LOOP('',(#288,#289,#290,#291,#292,#293));
#76=EDGE_LOOP('',(#294,#295,#296,#297));
#77=EDGE_LOOP('',(#298,#299,#300,#301));
#78=EDGE_LOOP('',(#302,#303,#304,#305));
#79=EDGE_LOOP('',(#306,#307,#308,#309,#310,#311,#312));
#80=EDGE_LOOP('',(#313,#314,#315,#316,#317,#318));
#81=LINE('',#494,#112);
#82=LINE('',#496,#113);
#83=LINE('',#498,#114);
#84=LINE('',#500,#115);
#85=LINE('',#502,#116);
#86=LINE('',#503,#117);
#87=LINE('',#510,#118);
#88=LINE('',#513,#119);
#89=LINE('',#566,#120);
#90=LINE('',#567,#121);
#91=LINE('',#570,#122);
#92=LINE('',#572,#123);
#93=LINE('',#574,#124);
#94=LINE('',#576,#125);
#95=LINE('',#577,#126);
#96=LINE('',#582,#127);
#97=LINE('',#585,#128);
#98=LINE('',#588,#129);
#99=LINE('',#589,#130);
#100=LINE('',#593,#131);
#101=LINE('',#597,#132);
#102=LINE('',#600,#133);
#103=LINE('',#601,#134);
#104=LINE('',#603,#135);
#105=LINE('',#605,#136);
#106=LINE('',#608,#137);
#107=LINE('',#609,#138);
#108=LINE('',#611,#139);
#109=LINE('',#613,#140);
#110=LINE('',#615,#141);
#111=LINE('',#617,#142);
#112=VECTOR('',#399,10.);
#113=VECTOR('',#400,10.);
#114=VECTOR('',#401,10.);
#115=VECTOR('',#402,10.);
#116=VECTOR('',#403,10.);
#117=VECTOR('',#404,10.);
#118=VECTOR('',#409,10.);
#119=VECTOR('',#412,10.);
#120=VECTOR('',#429,10.);
#121=VECTOR('',#430,10.);
#122=VECTOR('',#433,10.);
#123=VECTOR('',#434,10.);
#124=VECTOR('',#435,10.);
#125=VECTOR('',#436,10.);
#126=VECTOR('',#437,10.);
#127=VECTOR('',#440,10.);
#128=VECTOR('',#443,10.);
#129=VECTOR('',#446,10.);
#130=VECTOR('',#447,10.);
#131=VECTOR('',#452,2.);
#132=VECTOR('',#457,1.05);
#133=VECTOR('',#462,10.);
#134=VECTOR('',#463,10.);
#135=VECTOR('',#466,10.);
#136=VECTOR('',#469,10.);
#137=VECTOR('',#474,10.);
#138=VECTOR('',#475,10.);
#139=VECTOR('',#478,10.);
#140=VECTOR('',#481,10.);
#141=VECTOR('',#484,10.);
#142=VECTOR('',#487,10.);
#143=VERTEX_POINT('',#492);
#144=VERTEX_POINT('',#493);
#145=VERTEX_POINT('',#495);
#146=VERTEX_POINT('',#497);
#147=VERTEX_POINT('',#499);
#148=VERTEX_POINT('',#501);
#149=VERTEX_POINT('',#504);
#150=VERTEX_POINT('',#506);
#151=VERTEX_POINT('',#507);
#152=VERTEX_POINT('',#509);
#153=VERTEX_POINT('',#511);
#154=VERTEX_POINT('',#515);
#155=VERTEX_POINT('',#516);
#156=VERTEX_POINT('',#518);
#157=VERTEX_POINT('',#520);
#158=VERTEX_POINT('',#527);
#159=VERTEX_POINT('',#529);
#160=VERTEX_POINT('',#540);
#161=VERTEX_POINT('',#542);
#162=VERTEX_POINT('',#553);
#163=VERTEX_POINT('',#565);
#164=VERTEX_POINT('',#569);
#165=VERTEX_POINT('',#571);
#166=VERTEX_POINT('',#573);
#167=VERTEX_POINT('',#575);
#168=VERTEX_POINT('',#578);
#169=VERTEX_POINT('',#579);
#170=VERTEX_POINT('',#581);
#171=VERTEX_POINT('',#583);
#172=VERTEX_POINT('',#587);
#173=VERTEX_POINT('',#591);
#174=VERTEX_POINT('',#595);
#175=EDGE_CURVE('',#143,#144,#81,.T.);
#176=EDGE_CURVE('',#144,#145,#82,.T.);
#177=EDGE_CURVE('',#145,#146,#83,.T.);
#178=EDGE_CURVE('',#146,#147,#84,.T.);
#179=EDGE_CURVE('',#147,#148,#85,.T.);
#180=EDGE_CURVE('',#148,#143,#86,.T.);
#181=EDGE_CURVE('',#149,#149,#28,.T.);
#182=EDGE_CURVE('',#150,#151,#29,.T.);
#183=EDGE_CURVE('',#151,#152,#87,.T.);
#184=EDGE_CURVE('',#152,#153,#30,.T.);
#185=EDGE_CURVE('',#153,#150,#88,.T.);
#186=EDGE_CURVE('',#154,#155,#31,.T.);
#187=EDGE_CURVE('',#155,#156,#32,.T.);
#188=EDGE_CURVE('',#157,#156,#19,.F.);
#189=EDGE_CURVE('',#157,#158,#33,.T.);
#190=EDGE_CURVE('',#159,#158,#20,.F.);
#191=EDGE_CURVE('',#159,#160,#34,.T.);
#192=EDGE_CURVE('',#161,#160,#21,.F.);
#193=EDGE_CURVE('',#161,#162,#35,.T.);
#194=EDGE_CURVE('',#156,#162,#22,.F.);
#195=EDGE_CURVE('',#155,#154,#36,.T.);
#196=EDGE_CURVE('',#159,#163,#89,.T.);
#197=EDGE_CURVE('',#163,#160,#90,.T.);
#198=EDGE_CURVE('',#157,#164,#91,.T.);
#199=EDGE_CURVE('',#164,#165,#92,.T.);
#200=EDGE_CURVE('',#165,#166,#93,.T.);
#201=EDGE_CURVE('',#166,#167,#94,.T.);
#202=EDGE_CURVE('',#167,#158,#95,.T.);
#203=EDGE_CURVE('',#168,#169,#37,.T.);
#204=EDGE_CURVE('',#169,#170,#96,.T.);
#205=EDGE_CURVE('',#170,#171,#38,.T.);
#206=EDGE_CURVE('',#171,#168,#97,.T.);
#207=EDGE_CURVE('',#161,#172,#98,.T.);
#208=EDGE_CURVE('',#172,#162,#99,.T.);
#209=EDGE_CURVE('',#173,#173,#39,.F.);
#210=EDGE_CURVE('',#173,#154,#100,.T.);
#211=EDGE_CURVE('',#174,#174,#40,.T.);
#212=EDGE_CURVE('',#174,#149,#101,.T.);
#213=EDGE_CURVE('',#168,#151,#102,.T.);
#214=EDGE_CURVE('',#152,#171,#103,.T.);
#215=EDGE_CURVE('',#153,#170,#104,.T.);
#216=EDGE_CURVE('',#150,#169,#105,.T.);
#217=EDGE_CURVE('',#163,#144,#106,.T.);
#218=EDGE_CURVE('',#145,#167,#107,.T.);
#219=EDGE_CURVE('',#146,#166,#108,.T.);
#220=EDGE_CURVE('',#147,#165,#109,.T.);
#221=EDGE_CURVE('',#148,#164,#110,.T.);
#222=EDGE_CURVE('',#143,#172,#111,.T.);
#223=ORIENTED_EDGE('',*,*,#175,.T.);
#224=ORIENTED_EDGE('',*,*,#176,.T.);
#225=ORIENTED_EDGE('',*,*,#177,.T.);
#226=ORIENTED_EDGE('',*,*,#178,.T.);
#227=ORIENTED_EDGE('',*,*,#179,.T.);
#228=ORIENTED_EDGE('',*,*,#180,.T.);
#229=ORIENTED_EDGE('',*,*,#181,.T.);
#230=ORIENTED_EDGE('',*,*,#182,.T.);
#231=ORIENTED_EDGE('',*,*,#183,.T.);
#232=ORIENTED_EDGE('',*,*,#184,.T.);
#233=ORIENTED_EDGE('',*,*,#185,.T.);
#234=ORIENTED_EDGE('',*,*,#186,.T.);
#235=ORIENTED_EDGE('',*,*,#187,.T.);
#236=ORIENTED_EDGE('',*,*,#188,.F.);
#237=ORIENTED_EDGE('',*,*,#189,.T.);
#238=ORIENTED_EDGE('',*,*,#190,.F.);
#239=ORIENTED_EDGE('',*,*,#191,.T.);
#240=ORIENTED_EDGE('',*,*,#192,.F.);
#241=ORIENTED_EDGE('',*,*,#193,.T.);
#242=ORIENTED_EDGE('',*,*,#194,.F.);
#243=ORIENTED_EDGE('',*,*,#187,.F.);
#244=ORIENTED_EDGE('',*,*,#195,.T.);
#245=ORIENTED_EDGE('',*,*,#191,.F.);
#246=ORIENTED_EDGE('',*,*,#196,.T.);
#247=ORIENTED_EDGE('',*,*,#197,.T.);
#248=ORIENTED_EDGE('',*,*,#189,.F.);
#249=ORIENTED_EDGE('',*,*,#198,.T.);
#250=ORIENTED_EDGE('',*,*,#199,.T.);
#251=ORIENTED_EDGE('',*,*,#200,.T.);
#252=ORIENTED_EDGE('',*,*,#201,.T.);
#253=ORIENTED_EDGE('',*,*,#202,.T.);
#254=ORIENTED_EDGE('',*,*,#203,.T.);
#255=ORIENTED_EDGE('',*,*,#204,.T.);
#256=ORIENTED_EDGE('',*,*,#205,.T.);
#257=ORIENTED_EDGE('',*,*,#206,.T.);
#258=ORIENTED_EDGE('',*,*,#193,.F.);
#259=ORIENTED_EDGE('',*,*,#207,.T.);
#260=ORIENTED_EDGE('',*,*,#208,.T.);
#261=ORIENTED_EDGE('',*,*,#209,.F.);
#262=ORIENTED_EDGE('',*,*,#210,.T.);
#263=ORIENTED_EDGE('',*,*,#195,.F.);
#264=ORIENTED_EDGE('',*,*,#186,.F.);
#265=ORIENTED_EDGE('',*,*,#210,.F.);
#266=ORIENTED_EDGE('',*,*,#211,.F.);
#267=ORIENTED_EDGE('',*,*,#212,.T.);
#268=ORIENTED_EDGE('',*,*,#181,.F.);
#269=ORIENTED_EDGE('',*,*,#212,.F.);
#270=ORIENTED_EDGE('',*,*,#209,.T.);
#271=ORIENTED_EDGE('',*,*,#211,.T.);
#272=ORIENTED_EDGE('',*,*,#213,.F.);
#273=ORIENTED_EDGE('',*,*,#206,.F.);
#274=ORIENTED_EDGE('',*,*,#214,.F.);
#275=ORIENTED_EDGE('',*,*,#183,.F.);
#276=ORIENTED_EDGE('',*,*,#214,.T.);
#277=ORIENTED_EDGE('',*,*,#205,.F.);
#278=ORIENTED_EDGE('',*,*,#215,.F.);
#279=ORIENTED_EDGE('',*,*,#184,.F.);
#280=ORIENTED_EDGE('',*,*,#215,.T.);
#281=ORIENTED_EDGE('',*,*,#204,.F.);
#282=ORIENTED_EDGE('',*,*,#216,.F.);
#283=ORIENTED_EDGE('',*,*,#185,.F.);
#284=ORIENTED_EDGE('',*,*,#216,.T.);
#285=ORIENTED_EDGE('',*,*,#203,.F.);
#286=ORIENTED_EDGE('',*,*,#213,.T.);
#287=ORIENTED_EDGE('',*,*,#182,.F.);
#288=ORIENTED_EDGE('',*,*,#217,.F.);
#289=ORIENTED_EDGE('',*,*,#196,.F.);
#290=ORIENTED_EDGE('',*,*,#190,.T.);
#291=ORIENTED_EDGE('',*,*,#202,.F.);
#292=ORIENTED_EDGE('',*,*,#218,.F.);
#293=ORIENTED_EDGE('',*,*,#176,.F.);
#294=ORIENTED_EDGE('',*,*,#218,.T.);
#295=ORIENTED_EDGE('',*,*,#201,.F.);
#296=ORIENTED_EDGE('',*,*,#219,.F.);
#297=ORIENTED_EDGE('',*,*,#177,.F.);
#298=ORIENTED_EDGE('',*,*,#219,.T.);
#299=ORIENTED_EDGE('',*,*,#200,.F.);
#300=ORIENTED_EDGE('',*,*,#220,.F.);
#301=ORIENTED_EDGE('',*,*,#178,.F.);
#302=ORIENTED_EDGE('',*,*,#220,.T.);
#303=ORIENTED_EDGE('',*,*,#199,.F.);
#304=ORIENTED_EDGE('',*,*,#221,.F.);
#305=ORIENTED_EDGE('',*,*,#179,.F.);
#306=ORIENTED_EDGE('',*,*,#221,.T.);
#307=ORIENTED_EDGE('',*,*,#198,.F.);
#308=ORIENTED_EDGE('',*,*,#188,.T.);
#309=ORIENTED_EDGE('',*,*,#194,.T.);
#310=ORIENTED_EDGE('',*,*,#208,.F.);
#311=ORIENTED_EDGE('',*,*,#222,.F.);
#312=ORIENTED_EDGE('',*,*,#180,.F.);
#313=ORIENTED_EDGE('',*,*,#222,.T.);
#314=ORIENTED_EDGE('',*,*,#207,.F.);
#315=ORIENTED_EDGE('',*,*,#192,.T.);
#316=ORIENTED_EDGE('',*,*,#197,.F.);
#317=ORIENTED_EDGE('',*,*,#217,.T.);
#318=ORIENTED_EDGE('',*,*,#175,.F.);
#319=PLANE('',#364);
#320=PLANE('',#375);
#321=PLANE('',#376);
#322=PLANE('',#379);
#323=PLANE('',#384);
#324=PLANE('',#385);
#325=PLANE('',#387);
#326=PLANE('',#389);
#327=PLANE('',#390);
#328=PLANE('',#391);
#329=PLANE('',#392);
#330=PLANE('',#393);
#331=PLANE('',#394);
#332=ADVANCED_FACE('',(#41,#24,#25),#319,.F.);
#333=ADVANCED_FACE('',(#42),#23,.F.);
#334=ADVANCED_FACE('',(#43),#320,.T.);
#335=ADVANCED_FACE('',(#44,#26),#321,.T.);
#336=ADVANCED_FACE('',(#45),#322,.T.);
#337=ADVANCED_FACE('',(#46),#15,.T.);
#338=ADVANCED_FACE('',(#47),#16,.F.);
#339=ADVANCED_FACE('',(#48,#27),#323,.T.);
#340=ADVANCED_FACE('',(#49),#324,.T.);
#341=ADVANCED_FACE('',(#50),#17,.F.);
#342=ADVANCED_FACE('',(#51),#325,.T.);
#343=ADVANCED_FACE('',(#52),#18,.F.);
#344=ADVANCED_FACE('',(#53),#326,.T.);
#345=ADVANCED_FACE('',(#54),#327,.T.);
#346=ADVANCED_FACE('',(#55),#328,.T.);
#347=ADVANCED_FACE('',(#56),#329,.T.);
#348=ADVANCED_FACE('',(#57),#330,.T.);
#349=ADVANCED_FACE('',(#58),#331,.T.);
#350=CLOSED_SHELL('',(#332,#333,#334,#335,#336,#337,#338,#339,#340,#341,
#342,#343,#344,#345,#346,#347,#348,#349));
#351=DERIVED_UNIT_ELEMENT(#353,1.);
#352=DERIVED_UNIT_ELEMENT(#624,-3.);
#353=(
MASS_UNIT()
NAMED_UNIT(*)
SI_UNIT(.KILO.,.GRAM.)
);
#354=DERIVED_UNIT((#351,#352));
#355=MEASURE_REPRESENTATION_ITEM('density measure',
POSITIVE_RATIO_MEASURE(7850.),#354);
#356=PROPERTY_DEFINITION_REPRESENTATION(#361,#358);
#357=PROPERTY_DEFINITION_REPRESENTATION(#362,#359);
#358=REPRESENTATION('material name',(#360),#621);
#359=REPRESENTATION('density',(#355),#621);
#360=DESCRIPTIVE_REPRESENTATION_ITEM('Steel','Steel');
#361=PROPERTY_DEFINITION('material property','material name',#631);
#362=PROPERTY_DEFINITION('material property','density of part',#631);
#363=AXIS2_PLACEMENT_3D('',#490,#395,#396);
#364=AXIS2_PLACEMENT_3D('',#491,#397,#398);
#365=AXIS2_PLACEMENT_3D('',#505,#405,#406);
#366=AXIS2_PLACEMENT_3D('',#508,#407,#408);
#367=AXIS2_PLACEMENT_3D('',#512,#410,#411);
#368=AXIS2_PLACEMENT_3D('',#514,#413,#414);
#369=AXIS2_PLACEMENT_3D('',#517,#415,#416);
#370=AXIS2_PLACEMENT_3D('',#519,#417,#418);
#371=AXIS2_PLACEMENT_3D('',#528,#419,#420);
#372=AXIS2_PLACEMENT_3D('',#541,#421,#422);
#373=AXIS2_PLACEMENT_3D('',#554,#423,#424);
#374=AXIS2_PLACEMENT_3D('',#563,#425,#426);
#375=AXIS2_PLACEMENT_3D('',#564,#427,#428);
#376=AXIS2_PLACEMENT_3D('',#568,#431,#432);
#377=AXIS2_PLACEMENT_3D('',#580,#438,#439);
#378=AXIS2_PLACEMENT_3D('',#584,#441,#442);
#379=AXIS2_PLACEMENT_3D('',#586,#444,#445);
#380=AXIS2_PLACEMENT_3D('',#590,#448,#449);
#381=AXIS2_PLACEMENT_3D('',#592,#450,#451);
#382=AXIS2_PLACEMENT_3D('',#594,#453,#454);
#383=AXIS2_PLACEMENT_3D('',#596,#455,#456);
#384=AXIS2_PLACEMENT_3D('',#598,#458,#459);
#385=AXIS2_PLACEMENT_3D('',#599,#460,#461);
#386=AXIS2_PLACEMENT_3D('',#602,#464,#465);
#387=AXIS2_PLACEMENT_3D('',#604,#467,#468);
#388=AXIS2_PLACEMENT_3D('',#606,#470,#471);
#389=AXIS2_PLACEMENT_3D('',#607,#472,#473);
#390=AXIS2_PLACEMENT_3D('',#610,#476,#477);
#391=AXIS2_PLACEMENT_3D('',#612,#479,#480);
#392=AXIS2_PLACEMENT_3D('',#614,#482,#483);
#393=AXIS2_PLACEMENT_3D('',#616,#485,#486);
#394=AXIS2_PLACEMENT_3D('',#618,#488,#489);
#395=DIRECTION('axis',(0.,0.,1.));
#396=DIRECTION('refdir',(1.,0.,0.));
#397=DIRECTION('center_axis',(0.,0.,1.));
#398=DIRECTION('ref_axis',(1.,0.,0.));
#399=DIRECTION('',(-1.,0.,0.));
#400=DIRECTION('',(-0.0665190016423524,0.997785158448704,0.));
#401=DIRECTION('',(0.,1.,0.));
#402=DIRECTION('',(1.,0.,0.));
#403=DIRECTION('',(0.,-1.,0.));
#404=DIRECTION('',(-0.0665190144710724,-0.997785157593456,0.));
#405=DIRECTION('center_axis',(0.,0.,1.));
#406=DIRECTION('ref_axis',(-1.,0.,0.));
#407=DIRECTION('center_axis',(0.,0.,1.));
#408=DIRECTION('ref_axis',(1.,0.,0.));
#409=DIRECTION('',(0.,-1.,0.));
#410=DIRECTION('center_axis',(0.,0.,1.));
#411=DIRECTION('ref_axis',(1.,0.,0.));
#412=DIRECTION('',(0.,1.,0.));
#413=DIRECTION('center_axis',(0.,0.,-1.));
#414=DIRECTION('ref_axis',(-1.,0.,0.));
#415=DIRECTION('center_axis',(0.,0.,-1.));
#416=DIRECTION('ref_axis',(1.,0.,0.));
#417=DIRECTION('center_axis',(-1.08845394571094E-16,-1.,0.));
#418=DIRECTION('ref_axis',(1.,-1.08845394571094E-16,0.));
#419=DIRECTION('center_axis',(0.,0.,1.));
#420=DIRECTION('ref_axis',(1.,0.,0.));
#421=DIRECTION('center_axis',(0.,0.,1.));
#422=DIRECTION('ref_axis',(1.,0.,0.));
#423=DIRECTION('center_axis',(0.,0.,1.));
#424=DIRECTION('ref_axis',(1.,0.,0.));
#425=DIRECTION('center_axis',(0.,0.,-1.));
#426=DIRECTION('ref_axis',(1.,0.,0.));
#427=DIRECTION('center_axis',(0.,0.,1.));
#428=DIRECTION('ref_axis',(1.,0.,0.));
#429=DIRECTION('',(0.0665190016423524,-0.997785158448704,0.));
#430=DIRECTION('',(1.,0.,0.));
#431=DIRECTION('center_axis',(0.,0.,1.));
#432=DIRECTION('ref_axis',(1.,0.,0.));
#433=DIRECTION('',(0.0665190144710724,0.997785157593456,0.));
#434=DIRECTION('',(0.,1.,0.));
#435=DIRECTION('',(-1.,0.,0.));
#436=DIRECTION('',(0.,-1.,0.));
#437=DIRECTION('',(0.0665190016423524,-0.997785158448704,0.));
#438=DIRECTION('center_axis',(0.,0.,-1.));
#439=DIRECTION('ref_axis',(1.,0.,0.));
#440=DIRECTION('',(0.,-1.,0.));
#441=DIRECTION('center_axis',(0.,0.,-1.));
#442=DIRECTION('ref_axis',(1.,0.,0.));
#443=DIRECTION('',(0.,1.,0.));
#444=DIRECTION('center_axis',(0.,0.,1.));
#445=DIRECTION('ref_axis',(1.,0.,0.));
#446=DIRECTION('',(1.,0.,0.));
#447=DIRECTION('',(0.0665190144710724,0.997785157593456,0.));
#448=DIRECTION('center_axis',(0.,0.,1.));
#449=DIRECTION('ref_axis',(1.,0.,0.));
#450=DIRECTION('center_axis',(0.,0.,-1.));
#451=DIRECTION('ref_axis',(1.,0.,0.));
#452=DIRECTION('',(0.,0.,-1.));
#453=DIRECTION('center_axis',(0.,0.,-1.));
#454=DIRECTION('ref_axis',(-1.,0.,0.));
#455=DIRECTION('center_axis',(0.,0.,-1.));
#456=DIRECTION('ref_axis',(-1.,0.,0.));
#457=DIRECTION('',(0.,0.,-1.));
#458=DIRECTION('center_axis',(0.,0.,1.));
#459=DIRECTION('ref_axis',(1.,0.,0.));
#460=DIRECTION('center_axis',(1.,0.,0.));
#461=DIRECTION('ref_axis',(0.,1.,0.));
#462=DIRECTION('',(0.,0.,-1.));
#463=DIRECTION('',(0.,0.,1.));
#464=DIRECTION('center_axis',(0.,0.,1.));
#465=DIRECTION('ref_axis',(1.,0.,0.));
#466=DIRECTION('',(0.,0.,1.));
#467=DIRECTION('center_axis',(-1.,0.,0.));
#468=DIRECTION('ref_axis',(0.,-1.,0.));
#469=DIRECTION('',(0.,0.,1.));
#470=DIRECTION('center_axis',(0.,0.,1.));
#471=DIRECTION('ref_axis',(1.,0.,0.));
#472=DIRECTION('center_axis',(-0.997785158448704,-0.0665190016423524,0.));
#473=DIRECTION('ref_axis',(0.0665190016423524,-0.997785158448704,0.));
#474=DIRECTION('',(0.,0.,-1.));
#475=DIRECTION('',(0.,0.,1.));
#476=DIRECTION('center_axis',(-1.,0.,0.));
#477=DIRECTION('ref_axis',(0.,-1.,0.));
#478=DIRECTION('',(0.,0.,1.));
#479=DIRECTION('center_axis',(0.,1.,0.));
#480=DIRECTION('ref_axis',(-1.,0.,0.));
#481=DIRECTION('',(0.,0.,1.));
#482=DIRECTION('center_axis',(1.,0.,0.));
#483=DIRECTION('ref_axis',(0.,1.,0.));
#484=DIRECTION('',(0.,0.,1.));
#485=DIRECTION('center_axis',(0.997785157593456,-0.0665190144710724,0.));
#486=DIRECTION('ref_axis',(0.0665190144710724,0.997785157593456,0.));
#487=DIRECTION('',(0.,0.,1.));
#488=DIRECTION('center_axis',(0.,-1.,0.));
#489=DIRECTION('ref_axis',(1.,0.,0.));
#490=CARTESIAN_POINT('',(0.,0.,0.));
#491=CARTESIAN_POINT('Origin',(-6.5,10.,-1.));
#492=CARTESIAN_POINT('',(-4.00000005960464,-5.,-1.));
#493=CARTESIAN_POINT('',(-9.00000013411045,-5.,-1.));
#494=CARTESIAN_POINT('',(-3.,-5.,-1.));
#495=CARTESIAN_POINT('',(-10.,10.,-1.));
#496=CARTESIAN_POINT('',(-9.00000013411045,-5.,-1.));
#497=CARTESIAN_POINT('',(-10.,25.,-1.));
#498=CARTESIAN_POINT('',(-10.,-5.,-1.));
#499=CARTESIAN_POINT('',(-3.,25.,-1.));
#500=CARTESIAN_POINT('',(-10.,25.,-1.));
#501=CARTESIAN_POINT('',(-3.,10.,-1.));
#502=CARTESIAN_POINT('',(-3.,25.,-1.));
#503=CARTESIAN_POINT('',(-4.00000005960464,-5.,-1.));
#504=CARTESIAN_POINT('',(-5.45000002235174,-1.49999998509884,-1.));
#505=CARTESIAN_POINT('Origin',(-6.50000002235174,-1.49999998509884,-1.));
#506=CARTESIAN_POINT('',(-5.,21.0000003278255,-1.));
#507=CARTESIAN_POINT('',(-8.,21.0000003278255,-1.));
#508=CARTESIAN_POINT('Origin',(-6.5,21.0000003278255,-1.));
#509=CARTESIAN_POINT('',(-8.,10.0000003278255,-1.));
#510=CARTESIAN_POINT('',(-8.,21.0000003278255,-1.));
#511=CARTESIAN_POINT('',(-5.,10.0000003278255,-1.));
#512=CARTESIAN_POINT('Origin',(-6.5,10.0000003278255,-1.));
#513=CARTESIAN_POINT('',(-5.,10.0000003278255,-1.));
#514=CARTESIAN_POINT('Origin',(-6.50000002235174,-1.49999998509884,3.5));
#515=CARTESIAN_POINT('',(-8.60000002235174,-1.49999998509884,3.5));
#516=CARTESIAN_POINT('',(-4.40000002235174,-1.49999998509884,3.5));
#517=CARTESIAN_POINT('Origin',(-6.50000002235174,-1.49999998509884,3.5));
#518=CARTESIAN_POINT('',(-3.76666671135654,-1.49999998499674,2.27570883766587));
#519=CARTESIAN_POINT('Origin',(-2.90000002235174,-1.49999998509884,3.5));
#520=CARTESIAN_POINT('',(-3.62244925037521,0.663261800884832,2.));
#521=CARTESIAN_POINT('Ctrl Pts',(-3.76666671135654,-1.49999998489464,2.27570883766587));
#522=CARTESIAN_POINT('Ctrl Pts',(-3.73671909752395,-1.05078580418101,2.25450914256761));
#523=CARTESIAN_POINT('Ctrl Pts',(-3.7035523055487,-0.553283954205776,2.14004638846587));
#524=CARTESIAN_POINT('Ctrl Pts',(-3.65869374713532,0.119594381888205,2.0326331380486));
#525=CARTESIAN_POINT('Ctrl Pts',(-3.63897817643822,0.415327924717625,2.));
#526=CARTESIAN_POINT('Ctrl Pts',(-3.62244925037521,0.663261800884831,2.));
#527=CARTESIAN_POINT('',(-9.37755086402219,0.663261708178632,2.));
#528=CARTESIAN_POINT('Origin',(-6.50000002235174,-1.49999998509884,2.));
#529=CARTESIAN_POINT('',(-9.0649272254452,-4.02609349936769,2.));
#530=CARTESIAN_POINT('Ctrl Pts',(-9.37755086402219,0.663261708178631,2.));
#531=CARTESIAN_POINT('Ctrl Pts',(-9.36102194249687,0.415327852048408,2.));
#532=CARTESIAN_POINT('Ctrl Pts',(-9.34130637716748,0.119594332446457,2.03263312926199));
#533=CARTESIAN_POINT('Ctrl Pts',(-9.29254137345584,-0.611880821326454,2.14940031178274));
#534=CARTESIAN_POINT('Ctrl Pts',(-9.2540898310688,-1.18865403448349,2.2800168222611));
#535=CARTESIAN_POINT('Ctrl Pts',(-9.18838825839859,-2.17417775670557,2.2800168222611));
#536=CARTESIAN_POINT('Ctrl Pts',(-9.14993671601155,-2.75095096986261,2.14940031178274));
#537=CARTESIAN_POINT('Ctrl Pts',(-9.10117171229992,-3.48242612363552,2.03263312926199));
#538=CARTESIAN_POINT('Ctrl Pts',(-9.08145614697052,-3.77815964323747,2.));
#539=CARTESIAN_POINT('Ctrl Pts',(-9.0649272254452,-4.02609349936769,2.));
#540=CARTESIAN_POINT('',(-7.34261493777389,-5.,2.));
#541=CARTESIAN_POINT('Origin',(-6.50000002235174,-1.49999998509884,2.));
#542=CARTESIAN_POINT('',(-5.6573851069296,-5.,2.));
#543=CARTESIAN_POINT('Ctrl Pts',(-7.34261493777389,-5.,2.));
#544=CARTESIAN_POINT('Ctrl Pts',(-7.26478170000773,-5.,2.));
#545=CARTESIAN_POINT('Ctrl Pts',(-7.17138267220897,-5.,2.00040022983863));
#546=CARTESIAN_POINT('Ctrl Pts',(-6.90806654887266,-5.,2.00186940069635));
#547=CARTESIAN_POINT('Ctrl Pts',(-6.68548700650535,-5.,2.0033370442948));
#548=CARTESIAN_POINT('Ctrl Pts',(-6.31451303819814,-5.,2.0033370442948));
#549=CARTESIAN_POINT('Ctrl Pts',(-6.09193349583082,-5.,2.00186940069635));
#550=CARTESIAN_POINT('Ctrl Pts',(-5.82861737249451,-5.,2.00040022983863));
#551=CARTESIAN_POINT('Ctrl Pts',(-5.73521834469576,-5.,2.));
#552=CARTESIAN_POINT('Ctrl Pts',(-5.6573851069296,-5.,2.));
#553=CARTESIAN_POINT('',(-3.93507296559853,-4.02609364795762,2.));
#554=CARTESIAN_POINT('Origin',(-6.50000002235174,-1.49999998509884,2.));
#555=CARTESIAN_POINT('Ctrl Pts',(-3.93507296559853,-4.02609364795762,2.));
#556=CARTESIAN_POINT('Ctrl Pts',(-3.91854403953552,-3.77815977179042,2.));
#557=CARTESIAN_POINT('Ctrl Pts',(-3.89882846883841,-3.482426228961,2.0326331380486));
#558=CARTESIAN_POINT('Ctrl Pts',(-3.85006345318767,-2.75095103779915,2.14940035088292));
#559=CARTESIAN_POINT('Ctrl Pts',(-3.81161190212756,-2.17417780627589,2.28001689803087));
#560=CARTESIAN_POINT('Ctrl Pts',(-3.77480540813125,-1.62208042923877,2.28001689803087));
#561=CARTESIAN_POINT('Ctrl Pts',(-3.77076649973393,-1.5614968068901,2.27861104764006));
#562=CARTESIAN_POINT('Ctrl Pts',(-3.76666671135654,-1.49999998489464,2.27570883766587));
#563=CARTESIAN_POINT('Origin',(-6.50000002235174,-1.49999998509884,3.5));
#564=CARTESIAN_POINT('Origin',(-6.5,10.,2.));
#565=CARTESIAN_POINT('',(-9.00000013411045,-5.,2.));
#566=CARTESIAN_POINT('',(-9.00000013411045,-5.,2.));
#567=CARTESIAN_POINT('',(-3.,-5.,2.));
#568=CARTESIAN_POINT('Origin',(-6.5,10.,2.));
#569=CARTESIAN_POINT('',(-3.,10.,2.));
#570=CARTESIAN_POINT('',(-4.00000005960464,-5.,2.));
#571=CARTESIAN_POINT('',(-3.,25.,2.));
#572=CARTESIAN_POINT('',(-3.,25.,2.));
#573=CARTESIAN_POINT('',(-10.,25.,2.));
#574=CARTESIAN_POINT('',(-10.,25.,2.));
#575=CARTESIAN_POINT('',(-10.,10.,2.));
#576=CARTESIAN_POINT('',(-10.,-5.,2.));
#577=CARTESIAN_POINT('',(-9.00000013411045,-5.,2.));
#578=CARTESIAN_POINT('',(-8.,21.0000003278255,2.));
#579=CARTESIAN_POINT('',(-5.,21.0000003278255,2.));
#580=CARTESIAN_POINT('Origin',(-6.5,21.0000003278255,2.));
#581=CARTESIAN_POINT('',(-5.,10.0000003278255,2.));
#582=CARTESIAN_POINT('',(-5.,10.0000003278255,2.));
#583=CARTESIAN_POINT('',(-8.,10.0000003278255,2.));
#584=CARTESIAN_POINT('Origin',(-6.5,10.0000003278255,2.));
#585=CARTESIAN_POINT('',(-8.,21.0000003278255,2.));
#586=CARTESIAN_POINT('Origin',(-6.5,10.,2.));
#587=CARTESIAN_POINT('',(-4.00000005960464,-5.,2.));
#588=CARTESIAN_POINT('',(-3.,-5.,2.));
#589=CARTESIAN_POINT('',(-4.00000005960464,-5.,2.));
#590=CARTESIAN_POINT('Origin',(-6.50000002235174,-1.49999998509884,0.));
#591=CARTESIAN_POINT('',(-8.60000002235174,-1.49999998509884,10.));
#592=CARTESIAN_POINT('Origin',(-6.50000002235174,-1.49999998509884,10.));
#593=CARTESIAN_POINT('',(-8.60000002235174,-1.49999998509884,0.));
#594=CARTESIAN_POINT('Origin',(-6.50000002235174,-1.49999998509884,10.));
#595=CARTESIAN_POINT('',(-5.45000002235174,-1.49999998509884,10.));
#596=CARTESIAN_POINT('Origin',(-6.50000002235174,-1.49999998509884,10.));
#597=CARTESIAN_POINT('',(-5.45000002235174,-1.49999998509884,10.));
#598=CARTESIAN_POINT('Origin',(-6.50000002235174,-1.49999998509884,10.));
#599=CARTESIAN_POINT('Origin',(-8.,10.0000003278255,0.));
#600=CARTESIAN_POINT('',(-8.,21.0000003278255,0.));
#601=CARTESIAN_POINT('',(-8.,10.0000003278255,0.));
#602=CARTESIAN_POINT('Origin',(-6.5,10.0000003278255,0.));
#603=CARTESIAN_POINT('',(-5.,10.0000003278255,0.));
#604=CARTESIAN_POINT('Origin',(-5.,21.0000003278255,0.));
#605=CARTESIAN_POINT('',(-5.,21.0000003278255,0.));
#606=CARTESIAN_POINT('Origin',(-6.5,21.0000003278255,0.));
#607=CARTESIAN_POINT('Origin',(-10.,10.,0.));
#608=CARTESIAN_POINT('',(-9.00000013411045,-5.,0.));
#609=CARTESIAN_POINT('',(-10.,10.,0.));
#610=CARTESIAN_POINT('Origin',(-10.,25.,0.));
#611=CARTESIAN_POINT('',(-10.,25.,0.));
#612=CARTESIAN_POINT('Origin',(-3.,25.,0.));
#613=CARTESIAN_POINT('',(-3.,25.,0.));
#614=CARTESIAN_POINT('Origin',(-3.,10.,0.));
#615=CARTESIAN_POINT('',(-3.,10.,0.));
#616=CARTESIAN_POINT('Origin',(-4.00000005960464,-5.,0.));
#617=CARTESIAN_POINT('',(-4.00000005960464,-5.,0.));
#618=CARTESIAN_POINT('Origin',(-9.00000013411045,-5.,0.));
#619=UNCERTAINTY_MEASURE_WITH_UNIT(LENGTH_MEASURE(0.01),#623,
'DISTANCE_ACCURACY_VALUE',
'Maximum model space distance between geometric entities at asserted c
onnectivities');
#620=UNCERTAINTY_MEASURE_WITH_UNIT(LENGTH_MEASURE(0.01),#623,
'DISTANCE_ACCURACY_VALUE',
'Maximum model space distance between geometric entities at asserted c
onnectivities');
#621=(
GEOMETRIC_REPRESENTATION_CONTEXT(3)
GLOBAL_UNCERTAINTY_ASSIGNED_CONTEXT((#619))
GLOBAL_UNIT_ASSIGNED_CONTEXT((#623,#625,#626))
REPRESENTATION_CONTEXT('','3D')
);
#622=(
GEOMETRIC_REPRESENTATION_CONTEXT(3)
GLOBAL_UNCERTAINTY_ASSIGNED_CONTEXT((#620))
GLOBAL_UNIT_ASSIGNED_CONTEXT((#623,#625,#626))
REPRESENTATION_CONTEXT('','3D')
);
#623=(
LENGTH_UNIT()
NAMED_UNIT(*)
SI_UNIT(.MILLI.,.METRE.)
);
#624=(
LENGTH_UNIT()
NAMED_UNIT(*)
SI_UNIT($,.METRE.)
);
#625=(
NAMED_UNIT(*)
PLANE_ANGLE_UNIT()
SI_UNIT($,.RADIAN.)
);
#626=(
NAMED_UNIT(*)
SI_UNIT($,.STERADIAN.)
SOLID_ANGLE_UNIT()
);
#627=SHAPE_DEFINITION_REPRESENTATION(#628,#629);
#628=PRODUCT_DEFINITION_SHAPE('',$,#631);
#629=SHAPE_REPRESENTATION('',(#363),#621);
#630=PRODUCT_DEFINITION_CONTEXT('part definition',#635,'design');
#631=PRODUCT_DEFINITION('shaft_sa4_servo','shaft_sa4_servo v2',#632,#630);
#632=PRODUCT_DEFINITION_FORMATION('',$,#637);
#633=PRODUCT_RELATED_PRODUCT_CATEGORY('shaft_sa4_servo v2',
'shaft_sa4_servo v2',(#637));
#634=APPLICATION_PROTOCOL_DEFINITION('international standard',
'automotive_design',2009,#635);
#635=APPLICATION_CONTEXT(
'Core Data for Automotive Mechanical Design Process');
#636=PRODUCT_CONTEXT('part definition',#635,'mechanical');
#637=PRODUCT('shaft_sa4_servo','shaft_sa4_servo v2',$,(#636));
#638=PRESENTATION_STYLE_ASSIGNMENT((#639));
#639=SURFACE_STYLE_USAGE(.BOTH.,#640);
#640=SURFACE_SIDE_STYLE('',(#641));
#641=SURFACE_STYLE_FILL_AREA(#642);
#642=FILL_AREA_STYLE('Steel - Satin',(#643));
#643=FILL_AREA_STYLE_COLOUR('Steel - Satin',#644);
#644=COLOUR_RGB('Steel - Satin',0.627450980392157,0.627450980392157,0.627450980392157);
ENDSEC;
END-ISO-10303-21;
